<svg xmlns="http://www.w3.org/2000/svg" width="692" height="423.20000000000005" font-family="Hack, Monaco, Courier, monospace" font-size="14">
<rect width="692" height="423.20000000000005" fill="#282c34"/>
<g fill="#abb2bf">
<text x="10" y="24">$</text>
<text x="18.4" y="24"> </text>
<text x="26.8" y="24">e</text>
<text x="35.2" y="24">c</text>
<text x="43.6" y="24">h</text>
<text x="52" y="24">o</text>
<text x="60.400000000000006" y="24"> </text>
<text x="68.80000000000001" y="24">&quot;</text>
<text x="77.2" y="24">h</text>
<text x="85.60000000000001" y="24">e</text>
<text x="94" y="24">l</text>
<text x="102.4" y="24">l</text>
<text x="110.80000000000001" y="24">o</text>
<text x="119.2" y="24"> </text>
<text x="127.60000000000001" y="24">f</text>
<text x="136" y="24">r</text>
<text x="144.4" y="24">o</text>
<text x="152.8" y="24">m</text>
<text x="161.20000000000002" y="24"> </text>
<text x="169.6" y="24">s</text>
<text x="178" y="24">h</text>
<text x="186.4" y="24">e</text>
<text x="194.8" y="24">l</text>
<text x="203.20000000000002" y="24">l</text>
<text x="211.60000000000002" y="24">w</text>
<text x="220" y="24">r</text>
<text x="228.4" y="24">i</text>
<text x="236.8" y="24">g</text>
<text x="245.20000000000002" y="24">h</text>
<text x="253.60000000000002" y="24">t</text>
<text x="262" y="24">&quot;</text>
<text x="270.40000000000003" y="24"> </text>
<text x="278.8" y="24"> </text>
<text x="287.2" y="24"> </text>
<text x="295.6" y="24"> </text>
<text x="304" y="24"> </text>
<text x="312.40000000000003" y="24"> </text>
<text x="320.8" y="24"> </text>
<text x="329.2" y="24"> </text>
<text x="337.6" y="24"> </text>
<text x="346" y="24"> </text>
<text x="354.40000000000003" y="24"> </text>
<text x="362.8" y="24"> </text>
<text x="371.2" y="24"> </text>
<text x="379.6" y="24"> </text>
<text x="388" y="24"> </text>
<text x="396.40000000000003" y="24"> </text>
<text x="404.8" y="24"> </text>
<text x="413.20000000000005" y="24"> </text>
<text x="421.6" y="24"> </text>
<text x="430" y="24"> </text>
<text x="438.40000000000003" y="24"> </text>
<text x="446.8" y="24"> </text>
<text x="455.20000000000005" y="24"> </text>
<text x="463.6" y="24"> </text>
<text x="472" y="24"> </text>
<text x="480.40000000000003" y="24"> </text>
<text x="488.8" y="24"> </text>
<text x="497.20000000000005" y="24"> </text>
<text x="505.6" y="24"> </text>
<text x="514" y="24"> </text>
<text x="522.4" y="24"> </text>
<text x="530.8000000000001" y="24"> </text>
<text x="539.2" y="24"> </text>
<text x="547.6" y="24"> </text>
<text x="556" y="24"> </text>
<text x="564.4" y="24"> </text>
<text x="572.8000000000001" y="24"> </text>
<text x="581.2" y="24"> </text>
<text x="589.6" y="24"> </text>
<text x="598" y="24"> </text>
<text x="606.4" y="24"> </text>
<text x="614.8000000000001" y="24"> </text>
<text x="623.2" y="24"> </text>
<text x="631.6" y="24"> </text>
<text x="640" y="24"> </text>
<text x="648.4" y="24"> </text>
<text x="656.8000000000001" y="24"> </text>
<text x="665.2" y="24"> </text>
<text x="673.6" y="24"> </text>
<text x="10" y="40.8">h</text>
<text x="18.4" y="40.8">e</text>
<text x="26.8" y="40.8">l</text>
<text x="35.2" y="40.8">l</text>
<text x="43.6" y="40.8">o</text>
<text x="52" y="40.8"> </text>
<text x="60.400000000000006" y="40.8">f</text>
<text x="68.80000000000001" y="40.8">r</text>
<text x="77.2" y="40.8">o</text>
<text x="85.60000000000001" y="40.8">m</text>
<text x="94" y="40.8"> </text>
<text x="102.4" y="40.8">s</text>
<text x="110.80000000000001" y="40.8">h</text>
<text x="119.2" y="40.8">e</text>
<text x="127.60000000000001" y="40.8">l</text>
<text x="136" y="40.8">l</text>
<text x="144.4" y="40.8">w</text>
<text x="152.8" y="40.8">r</text>
<text x="161.20000000000002" y="40.8">i</text>
<text x="169.6" y="40.8">g</text>
<text x="178" y="40.8">h</text>
<text x="186.4" y="40.8">t</text>
<text x="194.8" y="40.8"> </text>
<text x="203.20000000000002" y="40.8"> </text>
<text x="211.60000000000002" y="40.8"> </text>
<text x="220" y="40.8"> </text>
<text x="228.4" y="40.8"> </text>
<text x="236.8" y="40.8"> </text>
<text x="245.20000000000002" y="40.8"> </text>
<text x="253.60000000000002" y="40.8"> </text>
<text x="262" y="40.8"> </text>
<text x="270.40000000000003" y="40.8"> </text>
<text x="278.8" y="40.8"> </text>
<text x="287.2" y="40.8"> </text>
<text x="295.6" y="40.8"> </text>
<text x="304" y="40.8"> </text>
<text x="312.40000000000003" y="40.8"> </text>
<text x="320.8" y="40.8"> </text>
<text x="329.2" y="40.8"> </text>
<text x="337.6" y="40.8"> </text>
<text x="346" y="40.8"> </text>
<text x="354.40000000000003" y="40.8"> </text>
<text x="362.8" y="40.8"> </text>
<text x="371.2" y="40.8"> </text>
<text x="379.6" y="40.8"> </text>
<text x="388" y="40.8"> </text>
<text x="396.40000000000003" y="40.8"> </text>
<text x="404.8" y="40.8"> </text>
<text x="413.20000000000005" y="40.8"> </text>
<text x="421.6" y="40.8"> </text>
<text x="430" y="40.8"> </text>
<text x="438.40000000000003" y="40.8"> </text>
<text x="446.8" y="40.8"> </text>
<text x="455.20000000000005" y="40.8"> </text>
<text x="463.6" y="40.8"> </text>
<text x="472" y="40.8"> </text>
<text x="480.40000000000003" y="40.8"> </text>
<text x="488.8" y="40.8"> </text>
<text x="497.20000000000005" y="40.8"> </text>
<text x="505.6" y="40.8"> </text>
<text x="514" y="40.8"> </text>
<text x="522.4" y="40.8"> </text>
<text x="530.8000000000001" y="40.8"> </text>
<text x="539.2" y="40.8"> </text>
<text x="547.6" y="40.8"> </text>
<text x="556" y="40.8"> </text>
<text x="564.4" y="40.8"> </text>
<text x="572.8000000000001" y="40.8"> </text>
<text x="581.2" y="40.8"> </text>
<text x="589.6" y="40.8"> </text>
<text x="598" y="40.8"> </text>
<text x="606.4" y="40.8"> </text>
<text x="614.8000000000001" y="40.8"> </text>
<text x="623.2" y="40.8"> </text>
<text x="631.6" y="40.8"> </text>
<text x="640" y="40.8"> </text>
<text x="648.4" y="40.8"> </text>
<text x="656.8000000000001" y="40.8"> </text>
<text x="665.2" y="40.8"> </text>
<text x="673.6" y="40.8"> </text>
<text x="10" y="57.6">$</text>
<text x="18.4" y="57.6"> </text>
<text x="26.8" y="57.6"> </text>
<text x="35.2" y="57.6"> </text>
<text x="43.6" y="57.6"> </text>
<text x="52" y="57.6"> </text>
<text x="60.400000000000006" y="57.6"> </text>
<text x="68.80000000000001" y="57.6"> </text>
<text x="77.2" y="57.6"> </text>
<text x="85.60000000000001" y="57.6"> </text>
<text x="94" y="57.6"> </text>
<text x="102.4" y="57.6"> </text>
<text x="110.80000000000001" y="57.6"> </text>
<text x="119.2" y="57.6"> </text>
<text x="127.60000000000001" y="57.6"> </text>
<text x="136" y="57.6"> </text>
<text x="144.4" y="57.6"> </text>
<text x="152.8" y="57.6"> </text>
<text x="161.20000000000002" y="57.6"> </text>
<text x="169.6" y="57.6"> </text>
<text x="178" y="57.6"> </text>
<text x="186.4" y="57.6"> </text>
<text x="194.8" y="57.6"> </text>
<text x="203.20000000000002" y="57.6"> </text>
<text x="211.60000000000002" y="57.6"> </text>
<text x="220" y="57.6"> </text>
<text x="228.4" y="57.6"> </text>
<text x="236.8" y="57.6"> </text>
<text x="245.20000000000002" y="57.6"> </text>
<text x="253.60000000000002" y="57.6"> </text>
<text x="262" y="57.6"> </text>
<text x="270.40000000000003" y="57.6"> </text>
<text x="278.8" y="57.6"> </text>
<text x="287.2" y="57.6"> </text>
<text x="295.6" y="57.6"> </text>
<text x="304" y="57.6"> </text>
<text x="312.40000000000003" y="57.6"> </text>
<text x="320.8" y="57.6"> </text>
<text x="329.2" y="57.6"> </text>
<text x="337.6" y="57.6"> </text>
<text x="346" y="57.6"> </text>
<text x="354.40000000000003" y="57.6"> </text>
<text x="362.8" y="57.6"> </text>
<text x="371.2" y="57.6"> </text>
<text x="379.6" y="57.6"> </text>
<text x="388" y="57.6"> </text>
<text x="396.40000000000003" y="57.6"> </text>
<text x="404.8" y="57.6"> </text>
<text x="413.20000000000005" y="57.6"> </text>
<text x="421.6" y="57.6"> </text>
<text x="430" y="57.6"> </text>
<text x="438.40000000000003" y="57.6"> </text>
<text x="446.8" y="57.6"> </text>
<text x="455.20000000000005" y="57.6"> </text>
<text x="463.6" y="57.6"> </text>
<text x="472" y="57.6"> </text>
<text x="480.40000000000003" y="57.6"> </text>
<text x="488.8" y="57.6"> </text>
<text x="497.20000000000005" y="57.6"> </text>
<text x="505.6" y="57.6"> </text>
<text x="514" y="57.6"> </text>
<text x="522.4" y="57.6"> </text>
<text x="530.8000000000001" y="57.6"> </text>
<text x="539.2" y="57.6"> </text>
<text x="547.6" y="57.6"> </text>
<text x="556" y="57.6"> </text>
<text x="564.4" y="57.6"> </text>
<text x="572.8000000000001" y="57.6"> </text>
<text x="581.2" y="57.6"> </text>
<text x="589.6" y="57.6"> </text>
<text x="598" y="57.6"> </text>
<text x="606.4" y="57.6"> </text>
<text x="614.8000000000001" y="57.6"> </text>
<text x="623.2" y="57.6"> </text>
<text x="631.6" y="57.6"> </text>
<text x="640" y="57.6"> </text>
<text x="648.4" y="57.6"> </text>
<text x="656.8000000000001" y="57.6"> </text>
<text x="665.2" y="57.6"> </text>
<text x="673.6" y="57.6"> </text>
<text x="10" y="74.4"> </text>
<text x="18.4" y="74.4"> </text>
<text x="26.8" y="74.4"> </text>
<text x="35.2" y="74.4"> </text>
<text x="43.6" y="74.4"> </text>
<text x="52" y="74.4"> </text>
<text x="60.400000000000006" y="74.4"> </text>
<text x="68.80000000000001" y="74.4"> </text>
<text x="77.2" y="74.4"> </text>
<text x="85.60000000000001" y="74.4"> </text>
<text x="94" y="74.4"> </text>
<text x="102.4" y="74.4"> </text>
<text x="110.80000000000001" y="74.4"> </text>
<text x="119.2" y="74.4"> </text>
<text x="127.60000000000001" y="74.4"> </text>
<text x="136" y="74.4"> </text>
<text x="144.4" y="74.4"> </text>
<text x="152.8" y="74.4"> </text>
<text x="161.20000000000002" y="74.4"> </text>
<text x="169.6" y="74.4"> </text>
<text x="178" y="74.4"> </text>
<text x="186.4" y="74.4"> </text>
<text x="194.8" y="74.4"> </text>
<text x="203.20000000000002" y="74.4"> </text>
<text x="211.60000000000002" y="74.4"> </text>
<text x="220" y="74.4"> </text>
<text x="228.4" y="74.4"> </text>
<text x="236.8" y="74.4"> </text>
<text x="245.20000000000002" y="74.4"> </text>
<text x="253.60000000000002" y="74.4"> </text>
<text x="262" y="74.4"> </text>
<text x="270.40000000000003" y="74.4"> </text>
<text x="278.8" y="74.4"> </text>
<text x="287.2" y="74.4"> </text>
<text x="295.6" y="74.4"> </text>
<text x="304" y="74.4"> </text>
<text x="312.40000000000003" y="74.4"> </text>
<text x="320.8" y="74.4"> </text>
<text x="329.2" y="74.4"> </text>
<text x="337.6" y="74.4"> </text>
<text x="346" y="74.4"> </text>
<text x="354.40000000000003" y="74.4"> </text>
<text x="362.8" y="74.4"> </text>
<text x="371.2" y="74.4"> </text>
<text x="379.6" y="74.4"> </text>
<text x="388" y="74.4"> </text>
<text x="396.40000000000003" y="74.4"> </text>
<text x="404.8" y="74.4"> </text>
<text x="413.20000000000005" y="74.4"> </text>
<text x="421.6" y="74.4"> </text>
<text x="430" y="74.4"> </text>
<text x="438.40000000000003" y="74.4"> </text>
<text x="446.8" y="74.4"> </text>
<text x="455.20000000000005" y="74.4"> </text>
<text x="463.6" y="74.4"> </text>
<text x="472" y="74.4"> </text>
<text x="480.40000000000003" y="74.4"> </text>
<text x="488.8" y="74.4"> </text>
<text x="497.20000000000005" y="74.4"> </text>
<text x="505.6" y="74.4"> </text>
<text x="514" y="74.4"> </text>
<text x="522.4" y="74.4"> </text>
<text x="530.8000000000001" y="74.4"> </text>
<text x="539.2" y="74.4"> </text>
<text x="547.6" y="74.4"> </text>
<text x="556" y="74.4"> </text>
<text x="564.4" y="74.4"> </text>
<text x="572.8000000000001" y="74.4"> </text>
<text x="581.2" y="74.4"> </text>
<text x="589.6" y="74.4"> </text>
<text x="598" y="74.4"> </text>
<text x="606.4" y="74.4"> </text>
<text x="614.8000000000001" y="74.4"> </text>
<text x="623.2" y="74.4"> </text>
<text x="631.6" y="74.4"> </text>
<text x="640" y="74.4"> </text>
<text x="648.4" y="74.4"> </text>
<text x="656.8000000000001" y="74.4"> </text>
<text x="665.2" y="74.4"> </text>
<text x="673.6" y="74.4"> </text>
<text x="10" y="91.2"> </text>
<text x="18.4" y="91.2"> </text>
<text x="26.8" y="91.2"> </text>
<text x="35.2" y="91.2"> </text>
<text x="43.6" y="91.2"> </text>
<text x="52" y="91.2"> </text>
<text x="60.400000000000006" y="91.2"> </text>
<text x="68.80000000000001" y="91.2"> </text>
<text x="77.2" y="91.2"> </text>
<text x="85.60000000000001" y="91.2"> </text>
<text x="94" y="91.2"> </text>
<text x="102.4" y="91.2"> </text>
<text x="110.80000000000001" y="91.2"> </text>
<text x="119.2" y="91.2"> </text>
<text x="127.60000000000001" y="91.2"> </text>
<text x="136" y="91.2"> </text>
<text x="144.4" y="91.2"> </text>
<text x="152.8" y="91.2"> </text>
<text x="161.20000000000002" y="91.2"> </text>
<text x="169.6" y="91.2"> </text>
<text x="178" y="91.2"> </text>
<text x="186.4" y="91.2"> </text>
<text x="194.8" y="91.2"> </text>
<text x="203.20000000000002" y="91.2"> </text>
<text x="211.60000000000002" y="91.2"> </text>
<text x="220" y="91.2"> </text>
<text x="228.4" y="91.2"> </text>
<text x="236.8" y="91.2"> </text>
<text x="245.20000000000002" y="91.2"> </text>
<text x="253.60000000000002" y="91.2"> </text>
<text x="262" y="91.2"> </text>
<text x="270.40000000000003" y="91.2"> </text>
<text x="278.8" y="91.2"> </text>
<text x="287.2" y="91.2"> </text>
<text x="295.6" y="91.2"> </text>
<text x="304" y="91.2"> </text>
<text x="312.40000000000003" y="91.2"> </text>
<text x="320.8" y="91.2"> </text>
<text x="329.2" y="91.2"> </text>
<text x="337.6" y="91.2"> </text>
<text x="346" y="91.2"> </text>
<text x="354.40000000000003" y="91.2"> </text>
<text x="362.8" y="91.2"> </text>
<text x="371.2" y="91.2"> </text>
<text x="379.6" y="91.2"> </text>
<text x="388" y="91.2"> </text>
<text x="396.40000000000003" y="91.2"> </text>
<text x="404.8" y="91.2"> </text>
<text x="413.20000000000005" y="91.2"> </text>
<text x="421.6" y="91.2"> </text>
<text x="430" y="91.2"> </text>
<text x="438.40000000000003" y="91.2"> </text>
<text x="446.8" y="91.2"> </text>
<text x="455.20000000000005" y="91.2"> </text>
<text x="463.6" y="91.2"> </text>
<text x="472" y="91.2"> </text>
<text x="480.40000000000003" y="91.2"> </text>
<text x="488.8" y="91.2"> </text>
<text x="497.20000000000005" y="91.2"> </text>
<text x="505.6" y="91.2"> </text>
<text x="514" y="91.2"> </text>
<text x="522.4" y="91.2"> </text>
<text x="530.8000000000001" y="91.2"> </text>
<text x="539.2" y="91.2"> </text>
<text x="547.6" y="91.2"> </text>
<text x="556" y="91.2"> </text>
<text x="564.4" y="91.2"> </text>
<text x="572.8000000000001" y="91.2"> </text>
<text x="581.2" y="91.2"> </text>
<text x="589.6" y="91.2"> </text>
<text x="598" y="91.2"> </text>
<text x="606.4" y="91.2"> </text>
<text x="614.8000000000001" y="91.2"> </text>
<text x="623.2" y="91.2"> </text>
<text x="631.6" y="91.2"> </text>
<text x="640" y="91.2"> </text>
<text x="648.4" y="91.2"> </text>
<text x="656.8000000000001" y="91.2"> </text>
<text x="665.2" y="91.2"> </text>
<text x="673.6" y="91.2"> </text>
<text x="10" y="108"> </text>
<text x="18.4" y="108"> </text>
<text x="26.8" y="108"> </text>
<text x="35.2" y="108"> </text>
<text x="43.6" y="108"> </text>
<text x="52" y="108"> </text>
<text x="60.400000000000006" y="108"> </text>
<text x="68.80000000000001" y="108"> </text>
<text x="77.2" y="108"> </text>
<text x="85.60000000000001" y="108"> </text>
<text x="94" y="108"> </text>
<text x="102.4" y="108"> </text>
<text x="110.80000000000001" y="108"> </text>
<text x="119.2" y="108"> </text>
<text x="127.60000000000001" y="108"> </text>
<text x="136" y="108"> </text>
<text x="144.4" y="108"> </text>
<text x="152.8" y="108"> </text>
<text x="161.20000000000002" y="108"> </text>
<text x="169.6" y="108"> </text>
<text x="178" y="108"> </text>
<text x="186.4" y="108"> </text>
<text x="194.8" y="108"> </text>
<text x="203.20000000000002" y="108"> </text>
<text x="211.60000000000002" y="108"> </text>
<text x="220" y="108"> </text>
<text x="228.4" y="108"> </text>
<text x="236.8" y="108"> </text>
<text x="245.20000000000002" y="108"> </text>
<text x="253.60000000000002" y="108"> </text>
<text x="262" y="108"> </text>
<text x="270.40000000000003" y="108"> </text>
<text x="278.8" y="108"> </text>
<text x="287.2" y="108"> </text>
<text x="295.6" y="108"> </text>
<text x="304" y="108"> </text>
<text x="312.40000000000003" y="108"> </text>
<text x="320.8" y="108"> </text>
<text x="329.2" y="108"> </text>
<text x="337.6" y="108"> </text>
<text x="346" y="108"> </text>
<text x="354.40000000000003" y="108"> </text>
<text x="362.8" y="108"> </text>
<text x="371.2" y="108"> </text>
<text x="379.6" y="108"> </text>
<text x="388" y="108"> </text>
<text x="396.40000000000003" y="108"> </text>
<text x="404.8" y="108"> </text>
<text x="413.20000000000005" y="108"> </text>
<text x="421.6" y="108"> </text>
<text x="430" y="108"> </text>
<text x="438.40000000000003" y="108"> </text>
<text x="446.8" y="108"> </text>
<text x="455.20000000000005" y="108"> </text>
<text x="463.6" y="108"> </text>
<text x="472" y="108"> </text>
<text x="480.40000000000003" y="108"> </text>
<text x="488.8" y="108"> </text>
<text x="497.20000000000005" y="108"> </text>
<text x="505.6" y="108"> </text>
<text x="514" y="108"> </text>
<text x="522.4" y="108"> </text>
<text x="530.8000000000001" y="108"> </text>
<text x="539.2" y="108"> </text>
<text x="547.6" y="108"> </text>
<text x="556" y="108"> </text>
<text x="564.4" y="108"> </text>
<text x="572.8000000000001" y="108"> </text>
<text x="581.2" y="108"> </text>
<text x="589.6" y="108"> </text>
<text x="598" y="108"> </text>
<text x="606.4" y="108"> </text>
<text x="614.8000000000001" y="108"> </text>
<text x="623.2" y="108"> </text>
<text x="631.6" y="108"> </text>
<text x="640" y="108"> </text>
<text x="648.4" y="108"> </text>
<text x="656.8000000000001" y="108"> </text>
<text x="665.2" y="108"> </text>
<text x="673.6" y="108"> </text>
<text x="10" y="124.80000000000001"> </text>
<text x="18.4" y="124.80000000000001"> </text>
<text x="26.8" y="124.80000000000001"> </text>
<text x="35.2" y="124.80000000000001"> </text>
<text x="43.6" y="124.80000000000001"> </text>
<text x="52" y="124.80000000000001"> </text>
<text x="60.400000000000006" y="124.80000000000001"> </text>
<text x="68.80000000000001" y="124.80000000000001"> </text>
<text x="77.2" y="124.80000000000001"> </text>
<text x="85.60000000000001" y="124.80000000000001"> </text>
<text x="94" y="124.80000000000001"> </text>
<text x="102.4" y="124.80000000000001"> </text>
<text x="110.80000000000001" y="124.80000000000001"> </text>
<text x="119.2" y="124.80000000000001"> </text>
<text x="127.60000000000001" y="124.80000000000001"> </text>
<text x="136" y="124.80000000000001"> </text>
<text x="144.4" y="124.80000000000001"> </text>
<text x="152.8" y="124.80000000000001"> </text>
<text x="161.20000000000002" y="124.80000000000001"> </text>
<text x="169.6" y="124.80000000000001"> </text>
<text x="178" y="124.80000000000001"> </text>
<text x="186.4" y="124.80000000000001"> </text>
<text x="194.8" y="124.80000000000001"> </text>
<text x="203.20000000000002" y="124.80000000000001"> </text>
<text x="211.60000000000002" y="124.80000000000001"> </text>
<text x="220" y="124.80000000000001"> </text>
<text x="228.4" y="124.80000000000001"> </text>
<text x="236.8" y="124.80000000000001"> </text>
<text x="245.20000000000002" y="124.80000000000001"> </text>
<text x="253.60000000000002" y="124.80000000000001"> </text>
<text x="262" y="124.80000000000001"> </text>
<text x="270.40000000000003" y="124.80000000000001"> </text>
<text x="278.8" y="124.80000000000001"> </text>
<text x="287.2" y="124.80000000000001"> </text>
<text x="295.6" y="124.80000000000001"> </text>
<text x="304" y="124.80000000000001"> </text>
<text x="312.40000000000003" y="124.80000000000001"> </text>
<text x="320.8" y="124.80000000000001"> </text>
<text x="329.2" y="124.80000000000001"> </text>
<text x="337.6" y="124.80000000000001"> </text>
<text x="346" y="124.80000000000001"> </text>
<text x="354.40000000000003" y="124.80000000000001"> </text>
<text x="362.8" y="124.80000000000001"> </text>
<text x="371.2" y="124.80000000000001"> </text>
<text x="379.6" y="124.80000000000001"> </text>
<text x="388" y="124.80000000000001"> </text>
<text x="396.40000000000003" y="124.80000000000001"> </text>
<text x="404.8" y="124.80000000000001"> </text>
<text x="413.20000000000005" y="124.80000000000001"> </text>
<text x="421.6" y="124.80000000000001"> </text>
<text x="430" y="124.80000000000001"> </text>
<text x="438.40000000000003" y="124.80000000000001"> </text>
<text x="446.8" y="124.80000000000001"> </text>
<text x="455.20000000000005" y="124.80000000000001"> </text>
<text x="463.6" y="124.80000000000001"> </text>
<text x="472" y="124.80000000000001"> </text>
<text x="480.40000000000003" y="124.80000000000001"> </text>
<text x="488.8" y="124.80000000000001"> </text>
<text x="497.20000000000005" y="124.80000000000001"> </text>
<text x="505.6" y="124.80000000000001"> </text>
<text x="514" y="124.80000000000001"> </text>
<text x="522.4" y="124.80000000000001"> </text>
<text x="530.8000000000001" y="124.80000000000001"> </text>
<text x="539.2" y="124.80000000000001"> </text>
<text x="547.6" y="124.80000000000001"> </text>
<text x="556" y="124.80000000000001"> </text>
<text x="564.4" y="124.80000000000001"> </text>
<text x="572.8000000000001" y="124.80000000000001"> </text>
<text x="581.2" y="124.80000000000001"> </text>
<text x="589.6" y="124.80000000000001"> </text>
<text x="598" y="124.80000000000001"> </text>
<text x="606.4" y="124.80000000000001"> </text>
<text x="614.8000000000001" y="124.80000000000001"> </text>
<text x="623.2" y="124.80000000000001"> </text>
<text x="631.6" y="124.80000000000001"> </text>
<text x="640" y="124.80000000000001"> </text>
<text x="648.4" y="124.80000000000001"> </text>
<text x="656.8000000000001" y="124.80000000000001"> </text>
<text x="665.2" y="124.80000000000001"> </text>
<text x="673.6" y="124.80000000000001"> </text>
<text x="10" y="141.60000000000002"> </text>
<text x="18.4" y="141.60000000000002"> </text>
<text x="26.8" y="141.60000000000002"> </text>
<text x="35.2" y="141.60000000000002"> </text>
<text x="43.6" y="141.60000000000002"> </text>
<text x="52" y="141.60000000000002"> </text>
<text x="60.400000000000006" y="141.60000000000002"> </text>
<text x="68.80000000000001" y="141.60000000000002"> </text>
<text x="77.2" y="141.60000000000002"> </text>
<text x="85.60000000000001" y="141.60000000000002"> </text>
<text x="94" y="141.60000000000002"> </text>
<text x="102.4" y="141.60000000000002"> </text>
<text x="110.80000000000001" y="141.60000000000002"> </text>
<text x="119.2" y="141.60000000000002"> </text>
<text x="127.60000000000001" y="141.60000000000002"> </text>
<text x="136" y="141.60000000000002"> </text>
<text x="144.4" y="141.60000000000002"> </text>
<text x="152.8" y="141.60000000000002"> </text>
<text x="161.20000000000002" y="141.60000000000002"> </text>
<text x="169.6" y="141.60000000000002"> </text>
<text x="178" y="141.60000000000002"> </text>
<text x="186.4" y="141.60000000000002"> </text>
<text x="194.8" y="141.60000000000002"> </text>
<text x="203.20000000000002" y="141.60000000000002"> </text>
<text x="211.60000000000002" y="141.60000000000002"> </text>
<text x="220" y="141.60000000000002"> </text>
<text x="228.4" y="141.60000000000002"> </text>
<text x="236.8" y="141.60000000000002"> </text>
<text x="245.20000000000002" y="141.60000000000002"> </text>
<text x="253.60000000000002" y="141.60000000000002"> </text>
<text x="262" y="141.60000000000002"> </text>
<text x="270.40000000000003" y="141.60000000000002"> </text>
<text x="278.8" y="141.60000000000002"> </text>
<text x="287.2" y="141.60000000000002"> </text>
<text x="295.6" y="141.60000000000002"> </text>
<text x="304" y="141.60000000000002"> </text>
<text x="312.40000000000003" y="141.60000000000002"> </text>
<text x="320.8" y="141.60000000000002"> </text>
<text x="329.2" y="141.60000000000002"> </text>
<text x="337.6" y="141.60000000000002"> </text>
<text x="346" y="141.60000000000002"> </text>
<text x="354.40000000000003" y="141.60000000000002"> </text>
<text x="362.8" y="141.60000000000002"> </text>
<text x="371.2" y="141.60000000000002"> </text>
<text x="379.6" y="141.60000000000002"> </text>
<text x="388" y="141.60000000000002"> </text>
<text x="396.40000000000003" y="141.60000000000002"> </text>
<text x="404.8" y="141.60000000000002"> </text>
<text x="413.20000000000005" y="141.60000000000002"> </text>
<text x="421.6" y="141.60000000000002"> </text>
<text x="430" y="141.60000000000002"> </text>
<text x="438.40000000000003" y="141.60000000000002"> </text>
<text x="446.8" y="141.60000000000002"> </text>
<text x="455.20000000000005" y="141.60000000000002"> </text>
<text x="463.6" y="141.60000000000002"> </text>
<text x="472" y="141.60000000000002"> </text>
<text x="480.40000000000003" y="141.60000000000002"> </text>
<text x="488.8" y="141.60000000000002"> </text>
<text x="497.20000000000005" y="141.60000000000002"> </text>
<text x="505.6" y="141.60000000000002"> </text>
<text x="514" y="141.60000000000002"> </text>
<text x="522.4" y="141.60000000000002"> </text>
<text x="530.8000000000001" y="141.60000000000002"> </text>
<text x="539.2" y="141.60000000000002"> </text>
<text x="547.6" y="141.60000000000002"> </text>
<text x="556" y="141.60000000000002"> </text>
<text x="564.4" y="141.60000000000002"> </text>
<text x="572.8000000000001" y="141.60000000000002"> </text>
<text x="581.2" y="141.60000000000002"> </text>
<text x="589.6" y="141.60000000000002"> </text>
<text x="598" y="141.60000000000002"> </text>
<text x="606.4" y="141.60000000000002"> </text>
<text x="614.8000000000001" y="141.60000000000002"> </text>
<text x="623.2" y="141.60000000000002"> </text>
<text x="631.6" y="141.60000000000002"> </text>
<text x="640" y="141.60000000000002"> </text>
<text x="648.4" y="141.60000000000002"> </text>
<text x="656.8000000000001" y="141.60000000000002"> </text>
<text x="665.2" y="141.60000000000002"> </text>
<text x="673.6" y="141.60000000000002"> </text>
<text x="10" y="158.4"> </text>
<text x="18.4" y="158.4"> </text>
<text x="26.8" y="158.4"> </text>
<text x="35.2" y="158.4"> </text>
<text x="43.6" y="158.4"> </text>
<text x="52" y="158.4"> </text>
<text x="60.400000000000006" y="158.4"> </text>
<text x="68.80000000000001" y="158.4"> </text>
<text x="77.2" y="158.4"> </text>
<text x="85.60000000000001" y="158.4"> </text>
<text x="94" y="158.4"> </text>
<text x="102.4" y="158.4"> </text>
<text x="110.80000000000001" y="158.4"> </text>
<text x="119.2" y="158.4"> </text>
<text x="127.60000000000001" y="158.4"> </text>
<text x="136" y="158.4"> </text>
<text x="144.4" y="158.4"> </text>
<text x="152.8" y="158.4"> </text>
<text x="161.20000000000002" y="158.4"> </text>
<text x="169.6" y="158.4"> </text>
<text x="178" y="158.4"> </text>
<text x="186.4" y="158.4"> </text>
<text x="194.8" y="158.4"> </text>
<text x="203.20000000000002" y="158.4"> </text>
<text x="211.60000000000002" y="158.4"> </text>
<text x="220" y="158.4"> </text>
<text x="228.4" y="158.4"> </text>
<text x="236.8" y="158.4"> </text>
<text x="245.20000000000002" y="158.4"> </text>
<text x="253.60000000000002" y="158.4"> </text>
<text x="262" y="158.4"> </text>
<text x="270.40000000000003" y="158.4"> </text>
<text x="278.8" y="158.4"> </text>
<text x="287.2" y="158.4"> </text>
<text x="295.6" y="158.4"> </text>
<text x="304" y="158.4"> </text>
<text x="312.40000000000003" y="158.4"> </text>
<text x="320.8" y="158.4"> </text>
<text x="329.2" y="158.4"> </text>
<text x="337.6" y="158.4"> </text>
<text x="346" y="158.4"> </text>
<text x="354.40000000000003" y="158.4"> </text>
<text x="362.8" y="158.4"> </text>
<text x="371.2" y="158.4"> </text>
<text x="379.6" y="158.4"> </text>
<text x="388" y="158.4"> </text>
<text x="396.40000000000003" y="158.4"> </text>
<text x="404.8" y="158.4"> </text>
<text x="413.20000000000005" y="158.4"> </text>
<text x="421.6" y="158.4"> </text>
<text x="430" y="158.4"> </text>
<text x="438.40000000000003" y="158.4"> </text>
<text x="446.8" y="158.4"> </text>
<text x="455.20000000000005" y="158.4"> </text>
<text x="463.6" y="158.4"> </text>
<text x="472" y="158.4"> </text>
<text x="480.40000000000003" y="158.4"> </text>
<text x="488.8" y="158.4"> </text>
<text x="497.20000000000005" y="158.4"> </text>
<text x="505.6" y="158.4"> </text>
<text x="514" y="158.4"> </text>
<text x="522.4" y="158.4"> </text>
<text x="530.8000000000001" y="158.4"> </text>
<text x="539.2" y="158.4"> </text>
<text x="547.6" y="158.4"> </text>
<text x="556" y="158.4"> </text>
<text x="564.4" y="158.4"> </text>
<text x="572.8000000000001" y="158.4"> </text>
<text x="581.2" y="158.4"> </text>
<text x="589.6" y="158.4"> </text>
<text x="598" y="158.4"> </text>
<text x="606.4" y="158.4"> </text>
<text x="614.8000000000001" y="158.4"> </text>
<text x="623.2" y="158.4"> </text>
<text x="631.6" y="158.4"> </text>
<text x="640" y="158.4"> </text>
<text x="648.4" y="158.4"> </text>
<text x="656.8000000000001" y="158.4"> </text>
<text x="665.2" y="158.4"> </text>
<text x="673.6" y="158.4"> </text>
<text x="10" y="175.20000000000002"> </text>
<text x="18.4" y="175.20000000000002"> </text>
<text x="26.8" y="175.20000000000002"> </text>
<text x="35.2" y="175.20000000000002"> </text>
<text x="43.6" y="175.20000000000002"> </text>
<text x="52" y="175.20000000000002"> </text>
<text x="60.400000000000006" y="175.20000000000002"> </text>
<text x="68.80000000000001" y="175.20000000000002"> </text>
<text x="77.2" y="175.20000000000002"> </text>
<text x="85.60000000000001" y="175.20000000000002"> </text>
<text x="94" y="175.20000000000002"> </text>
<text x="102.4" y="175.20000000000002"> </text>
<text x="110.80000000000001" y="175.20000000000002"> </text>
<text x="119.2" y="175.20000000000002"> </text>
<text x="127.60000000000001" y="175.20000000000002"> </text>
<text x="136" y="175.20000000000002"> </text>
<text x="144.4" y="175.20000000000002"> </text>
<text x="152.8" y="175.20000000000002"> </text>
<text x="161.20000000000002" y="175.20000000000002"> </text>
<text x="169.6" y="175.20000000000002"> </text>
<text x="178" y="175.20000000000002"> </text>
<text x="186.4" y="175.20000000000002"> </text>
<text x="194.8" y="175.20000000000002"> </text>
<text x="203.20000000000002" y="175.20000000000002"> </text>
<text x="211.60000000000002" y="175.20000000000002"> </text>
<text x="220" y="175.20000000000002"> </text>
<text x="228.4" y="175.20000000000002"> </text>
<text x="236.8" y="175.20000000000002"> </text>
<text x="245.20000000000002" y="175.20000000000002"> </text>
<text x="253.60000000000002" y="175.20000000000002"> </text>
<text x="262" y="175.20000000000002"> </text>
<text x="270.40000000000003" y="175.20000000000002"> </text>
<text x="278.8" y="175.20000000000002"> </text>
<text x="287.2" y="175.20000000000002"> </text>
<text x="295.6" y="175.20000000000002"> </text>
<text x="304" y="175.20000000000002"> </text>
<text x="312.40000000000003" y="175.20000000000002"> </text>
<text x="320.8" y="175.20000000000002"> </text>
<text x="329.2" y="175.20000000000002"> </text>
<text x="337.6" y="175.20000000000002"> </text>
<text x="346" y="175.20000000000002"> </text>
<text x="354.40000000000003" y="175.20000000000002"> </text>
<text x="362.8" y="175.20000000000002"> </text>
<text x="371.2" y="175.20000000000002"> </text>
<text x="379.6" y="175.20000000000002"> </text>
<text x="388" y="175.20000000000002"> </text>
<text x="396.40000000000003" y="175.20000000000002"> </text>
<text x="404.8" y="175.20000000000002"> </text>
<text x="413.20000000000005" y="175.20000000000002"> </text>
<text x="421.6" y="175.20000000000002"> </text>
<text x="430" y="175.20000000000002"> </text>
<text x="438.40000000000003" y="175.20000000000002"> </text>
<text x="446.8" y="175.20000000000002"> </text>
<text x="455.20000000000005" y="175.20000000000002"> </text>
<text x="463.6" y="175.20000000000002"> </text>
<text x="472" y="175.20000000000002"> </text>
<text x="480.40000000000003" y="175.20000000000002"> </text>
<text x="488.8" y="175.20000000000002"> </text>
<text x="497.20000000000005" y="175.20000000000002"> </text>
<text x="505.6" y="175.20000000000002"> </text>
<text x="514" y="175.20000000000002"> </text>
<text x="522.4" y="175.20000000000002"> </text>
<text x="530.8000000000001" y="175.20000000000002"> </text>
<text x="539.2" y="175.20000000000002"> </text>
<text x="547.6" y="175.20000000000002"> </text>
<text x="556" y="175.20000000000002"> </text>
<text x="564.4" y="175.20000000000002"> </text>
<text x="572.8000000000001" y="175.20000000000002"> </text>
<text x="581.2" y="175.20000000000002"> </text>
<text x="589.6" y="175.20000000000002"> </text>
<text x="598" y="175.20000000000002"> </text>
<text x="606.4" y="175.20000000000002"> </text>
<text x="614.8000000000001" y="175.20000000000002"> </text>
<text x="623.2" y="175.20000000000002"> </text>
<text x="631.6" y="175.20000000000002"> </text>
<text x="640" y="175.20000000000002"> </text>
<text x="648.4" y="175.20000000000002"> </text>
<text x="656.8000000000001" y="175.20000000000002"> </text>
<text x="665.2" y="175.20000000000002"> </text>
<text x="673.6" y="175.20000000000002"> </text>
<text x="10" y="192"> </text>
<text x="18.4" y="192"> </text>
<text x="26.8" y="192"> </text>
<text x="35.2" y="192"> </text>
<text x="43.6" y="192"> </text>
<text x="52" y="192"> </text>
<text x="60.400000000000006" y="192"> </text>
<text x="68.80000000000001" y="192"> </text>
<text x="77.2" y="192"> </text>
<text x="85.60000000000001" y="192"> </text>
<text x="94" y="192"> </text>
<text x="102.4" y="192"> </text>
<text x="110.80000000000001" y="192"> </text>
<text x="119.2" y="192"> </text>
<text x="127.60000000000001" y="192"> </text>
<text x="136" y="192"> </text>
<text x="144.4" y="192"> </text>
<text x="152.8" y="192"> </text>
<text x="161.20000000000002" y="192"> </text>
<text x="169.6" y="192"> </text>
<text x="178" y="192"> </text>
<text x="186.4" y="192"> </text>
<text x="194.8" y="192"> </text>
<text x="203.20000000000002" y="192"> </text>
<text x="211.60000000000002" y="192"> </text>
<text x="220" y="192"> </text>
<text x="228.4" y="192"> </text>
<text x="236.8" y="192"> </text>
<text x="245.20000000000002" y="192"> </text>
<text x="253.60000000000002" y="192"> </text>
<text x="262" y="192"> </text>
<text x="270.40000000000003" y="192"> </text>
<text x="278.8" y="192"> </text>
<text x="287.2" y="192"> </text>
<text x="295.6" y="192"> </text>
<text x="304" y="192"> </text>
<text x="312.40000000000003" y="192"> </text>
<text x="320.8" y="192"> </text>
<text x="329.2" y="192"> </text>
<text x="337.6" y="192"> </text>
<text x="346" y="192"> </text>
<text x="354.40000000000003" y="192"> </text>
<text x="362.8" y="192"> </text>
<text x="371.2" y="192"> </text>
<text x="379.6" y="192"> </text>
<text x="388" y="192"> </text>
<text x="396.40000000000003" y="192"> </text>
<text x="404.8" y="192"> </text>
<text x="413.20000000000005" y="192"> </text>
<text x="421.6" y="192"> </text>
<text x="430" y="192"> </text>
<text x="438.40000000000003" y="192"> </text>
<text x="446.8" y="192"> </text>
<text x="455.20000000000005" y="192"> </text>
<text x="463.6" y="192"> </text>
<text x="472" y="192"> </text>
<text x="480.40000000000003" y="192"> </text>
<text x="488.8" y="192"> </text>
<text x="497.20000000000005" y="192"> </text>
<text x="505.6" y="192"> </text>
<text x="514" y="192"> </text>
<text x="522.4" y="192"> </text>
<text x="530.8000000000001" y="192"> </text>
<text x="539.2" y="192"> </text>
<text x="547.6" y="192"> </text>
<text x="556" y="192"> </text>
<text x="564.4" y="192"> </text>
<text x="572.8000000000001" y="192"> </text>
<text x="581.2" y="192"> </text>
<text x="589.6" y="192"> </text>
<text x="598" y="192"> </text>
<text x="606.4" y="192"> </text>
<text x="614.8000000000001" y="192"> </text>
<text x="623.2" y="192"> </text>
<text x="631.6" y="192"> </text>
<text x="640" y="192"> </text>
<text x="648.4" y="192"> </text>
<text x="656.8000000000001" y="192"> </text>
<text x="665.2" y="192"> </text>
<text x="673.6" y="192"> </text>
<text x="10" y="208.8"> </text>
<text x="18.4" y="208.8"> </text>
<text x="26.8" y="208.8"> </text>
<text x="35.2" y="208.8"> </text>
<text x="43.6" y="208.8"> </text>
<text x="52" y="208.8"> </text>
<text x="60.400000000000006" y="208.8"> </text>
<text x="68.80000000000001" y="208.8"> </text>
<text x="77.2" y="208.8"> </text>
<text x="85.60000000000001" y="208.8"> </text>
<text x="94" y="208.8"> </text>
<text x="102.4" y="208.8"> </text>
<text x="110.80000000000001" y="208.8"> </text>
<text x="119.2" y="208.8"> </text>
<text x="127.60000000000001" y="208.8"> </text>
<text x="136" y="208.8"> </text>
<text x="144.4" y="208.8"> </text>
<text x="152.8" y="208.8"> </text>
<text x="161.20000000000002" y="208.8"> </text>
<text x="169.6" y="208.8"> </text>
<text x="178" y="208.8"> </text>
<text x="186.4" y="208.8"> </text>
<text x="194.8" y="208.8"> </text>
<text x="203.20000000000002" y="208.8"> </text>
<text x="211.60000000000002" y="208.8"> </text>
<text x="220" y="208.8"> </text>
<text x="228.4" y="208.8"> </text>
<text x="236.8" y="208.8"> </text>
<text x="245.20000000000002" y="208.8"> </text>
<text x="253.60000000000002" y="208.8"> </text>
<text x="262" y="208.8"> </text>
<text x="270.40000000000003" y="208.8"> </text>
<text x="278.8" y="208.8"> </text>
<text x="287.2" y="208.8"> </text>
<text x="295.6" y="208.8"> </text>
<text x="304" y="208.8"> </text>
<text x="312.40000000000003" y="208.8"> </text>
<text x="320.8" y="208.8"> </text>
<text x="329.2" y="208.8"> </text>
<text x="337.6" y="208.8"> </text>
<text x="346" y="208.8"> </text>
<text x="354.40000000000003" y="208.8"> </text>
<text x="362.8" y="208.8"> </text>
<text x="371.2" y="208.8"> </text>
<text x="379.6" y="208.8"> </text>
<text x="388" y="208.8"> </text>
<text x="396.40000000000003" y="208.8"> </text>
<text x="404.8" y="208.8"> </text>
<text x="413.20000000000005" y="208.8"> </text>
<text x="421.6" y="208.8"> </text>
<text x="430" y="208.8"> </text>
<text x="438.40000000000003" y="208.8"> </text>
<text x="446.8" y="208.8"> </text>
<text x="455.20000000000005" y="208.8"> </text>
<text x="463.6" y="208.8"> </text>
<text x="472" y="208.8"> </text>
<text x="480.40000000000003" y="208.8"> </text>
<text x="488.8" y="208.8"> </text>
<text x="497.20000000000005" y="208.8"> </text>
<text x="505.6" y="208.8"> </text>
<text x="514" y="208.8"> </text>
<text x="522.4" y="208.8"> </text>
<text x="530.8000000000001" y="208.8"> </text>
<text x="539.2" y="208.8"> </text>
<text x="547.6" y="208.8"> </text>
<text x="556" y="208.8"> </text>
<text x="564.4" y="208.8"> </text>
<text x="572.8000000000001" y="208.8"> </text>
<text x="581.2" y="208.8"> </text>
<text x="589.6" y="208.8"> </text>
<text x="598" y="208.8"> </text>
<text x="606.4" y="208.8"> </text>
<text x="614.8000000000001" y="208.8"> </text>
<text x="623.2" y="208.8"> </text>
<text x="631.6" y="208.8"> </text>
<text x="640" y="208.8"> </text>
<text x="648.4" y="208.8"> </text>
<text x="656.8000000000001" y="208.8"> </text>
<text x="665.2" y="208.8"> </text>
<text x="673.6" y="208.8"> </text>
<text x="10" y="225.60000000000002"> </text>
<text x="18.4" y="225.60000000000002"> </text>
<text x="26.8" y="225.60000000000002"> </text>
<text x="35.2" y="225.60000000000002"> </text>
<text x="43.6" y="225.60000000000002"> </text>
<text x="52" y="225.60000000000002"> </text>
<text x="60.400000000000006" y="225.60000000000002"> </text>
<text x="68.80000000000001" y="225.60000000000002"> </text>
<text x="77.2" y="225.60000000000002"> </text>
<text x="85.60000000000001" y="225.60000000000002"> </text>
<text x="94" y="225.60000000000002"> </text>
<text x="102.4" y="225.60000000000002"> </text>
<text x="110.80000000000001" y="225.60000000000002"> </text>
<text x="119.2" y="225.60000000000002"> </text>
<text x="127.60000000000001" y="225.60000000000002"> </text>
<text x="136" y="225.60000000000002"> </text>
<text x="144.4" y="225.60000000000002"> </text>
<text x="152.8" y="225.60000000000002"> </text>
<text x="161.20000000000002" y="225.60000000000002"> </text>
<text x="169.6" y="225.60000000000002"> </text>
<text x="178" y="225.60000000000002"> </text>
<text x="186.4" y="225.60000000000002"> </text>
<text x="194.8" y="225.60000000000002"> </text>
<text x="203.20000000000002" y="225.60000000000002"> </text>
<text x="211.60000000000002" y="225.60000000000002"> </text>
<text x="220" y="225.60000000000002"> </text>
<text x="228.4" y="225.60000000000002"> </text>
<text x="236.8" y="225.60000000000002"> </text>
<text x="245.20000000000002" y="225.60000000000002"> </text>
<text x="253.60000000000002" y="225.60000000000002"> </text>
<text x="262" y="225.60000000000002"> </text>
<text x="270.40000000000003" y="225.60000000000002"> </text>
<text x="278.8" y="225.60000000000002"> </text>
<text x="287.2" y="225.60000000000002"> </text>
<text x="295.6" y="225.60000000000002"> </text>
<text x="304" y="225.60000000000002"> </text>
<text x="312.40000000000003" y="225.60000000000002"> </text>
<text x="320.8" y="225.60000000000002"> </text>
<text x="329.2" y="225.60000000000002"> </text>
<text x="337.6" y="225.60000000000002"> </text>
<text x="346" y="225.60000000000002"> </text>
<text x="354.40000000000003" y="225.60000000000002"> </text>
<text x="362.8" y="225.60000000000002"> </text>
<text x="371.2" y="225.60000000000002"> </text>
<text x="379.6" y="225.60000000000002"> </text>
<text x="388" y="225.60000000000002"> </text>
<text x="396.40000000000003" y="225.60000000000002"> </text>
<text x="404.8" y="225.60000000000002"> </text>
<text x="413.20000000000005" y="225.60000000000002"> </text>
<text x="421.6" y="225.60000000000002"> </text>
<text x="430" y="225.60000000000002"> </text>
<text x="438.40000000000003" y="225.60000000000002"> </text>
<text x="446.8" y="225.60000000000002"> </text>
<text x="455.20000000000005" y="225.60000000000002"> </text>
<text x="463.6" y="225.60000000000002"> </text>
<text x="472" y="225.60000000000002"> </text>
<text x="480.40000000000003" y="225.60000000000002"> </text>
<text x="488.8" y="225.60000000000002"> </text>
<text x="497.20000000000005" y="225.60000000000002"> </text>
<text x="505.6" y="225.60000000000002"> </text>
<text x="514" y="225.60000000000002"> </text>
<text x="522.4" y="225.60000000000002"> </text>
<text x="530.8000000000001" y="225.60000000000002"> </text>
<text x="539.2" y="225.60000000000002"> </text>
<text x="547.6" y="225.60000000000002"> </text>
<text x="556" y="225.60000000000002"> </text>
<text x="564.4" y="225.60000000000002"> </text>
<text x="572.8000000000001" y="225.60000000000002"> </text>
<text x="581.2" y="225.60000000000002"> </text>
<text x="589.6" y="225.60000000000002"> </text>
<text x="598" y="225.60000000000002"> </text>
<text x="606.4" y="225.60000000000002"> </text>
<text x="614.8000000000001" y="225.60000000000002"> </text>
<text x="623.2" y="225.60000000000002"> </text>
<text x="631.6" y="225.60000000000002"> </text>
<text x="640" y="225.60000000000002"> </text>
<text x="648.4" y="225.60000000000002"> </text>
<text x="656.8000000000001" y="225.60000000000002"> </text>
<text x="665.2" y="225.60000000000002"> </text>
<text x="673.6" y="225.60000000000002"> </text>
<text x="10" y="242.4"> </text>
<text x="18.4" y="242.4"> </text>
<text x="26.8" y="242.4"> </text>
<text x="35.2" y="242.4"> </text>
<text x="43.6" y="242.4"> </text>
<text x="52" y="242.4"> </text>
<text x="60.400000000000006" y="242.4"> </text>
<text x="68.80000000000001" y="242.4"> </text>
<text x="77.2" y="242.4"> </text>
<text x="85.60000000000001" y="242.4"> </text>
<text x="94" y="242.4"> </text>
<text x="102.4" y="242.4"> </text>
<text x="110.80000000000001" y="242.4"> </text>
<text x="119.2" y="242.4"> </text>
<text x="127.60000000000001" y="242.4"> </text>
<text x="136" y="242.4"> </text>
<text x="144.4" y="242.4"> </text>
<text x="152.8" y="242.4"> </text>
<text x="161.20000000000002" y="242.4"> </text>
<text x="169.6" y="242.4"> </text>
<text x="178" y="242.4"> </text>
<text x="186.4" y="242.4"> </text>
<text x="194.8" y="242.4"> </text>
<text x="203.20000000000002" y="242.4"> </text>
<text x="211.60000000000002" y="242.4"> </text>
<text x="220" y="242.4"> </text>
<text x="228.4" y="242.4"> </text>
<text x="236.8" y="242.4"> </text>
<text x="245.20000000000002" y="242.4"> </text>
<text x="253.60000000000002" y="242.4"> </text>
<text x="262" y="242.4"> </text>
<text x="270.40000000000003" y="242.4"> </text>
<text x="278.8" y="242.4"> </text>
<text x="287.2" y="242.4"> </text>
<text x="295.6" y="242.4"> </text>
<text x="304" y="242.4"> </text>
<text x="312.40000000000003" y="242.4"> </text>
<text x="320.8" y="242.4"> </text>
<text x="329.2" y="242.4"> </text>
<text x="337.6" y="242.4"> </text>
<text x="346" y="242.4"> </text>
<text x="354.40000000000003" y="242.4"> </text>
<text x="362.8" y="242.4"> </text>
<text x="371.2" y="242.4"> </text>
<text x="379.6" y="242.4"> </text>
<text x="388" y="242.4"> </text>
<text x="396.40000000000003" y="242.4"> </text>
<text x="404.8" y="242.4"> </text>
<text x="413.20000000000005" y="242.4"> </text>
<text x="421.6" y="242.4"> </text>
<text x="430" y="242.4"> </text>
<text x="438.40000000000003" y="242.4"> </text>
<text x="446.8" y="242.4"> </text>
<text x="455.20000000000005" y="242.4"> </text>
<text x="463.6" y="242.4"> </text>
<text x="472" y="242.4"> </text>
<text x="480.40000000000003" y="242.4"> </text>
<text x="488.8" y="242.4"> </text>
<text x="497.20000000000005" y="242.4"> </text>
<text x="505.6" y="242.4"> </text>
<text x="514" y="242.4"> </text>
<text x="522.4" y="242.4"> </text>
<text x="530.8000000000001" y="242.4"> </text>
<text x="539.2" y="242.4"> </text>
<text x="547.6" y="242.4"> </text>
<text x="556" y="242.4"> </text>
<text x="564.4" y="242.4"> </text>
<text x="572.8000000000001" y="242.4"> </text>
<text x="581.2" y="242.4"> </text>
<text x="589.6" y="242.4"> </text>
<text x="598" y="242.4"> </text>
<text x="606.4" y="242.4"> </text>
<text x="614.8000000000001" y="242.4"> </text>
<text x="623.2" y="242.4"> </text>
<text x="631.6" y="242.4"> </text>
<text x="640" y="242.4"> </text>
<text x="648.4" y="242.4"> </text>
<text x="656.8000000000001" y="242.4"> </text>
<text x="665.2" y="242.4"> </text>
<text x="673.6" y="242.4"> </text>
<text x="10" y="259.20000000000005"> </text>
<text x="18.4" y="259.20000000000005"> </text>
<text x="26.8" y="259.20000000000005"> </text>
<text x="35.2" y="259.20000000000005"> </text>
<text x="43.6" y="259.20000000000005"> </text>
<text x="52" y="259.20000000000005"> </text>
<text x="60.400000000000006" y="259.20000000000005"> </text>
<text x="68.80000000000001" y="259.20000000000005"> </text>
<text x="77.2" y="259.20000000000005"> </text>
<text x="85.60000000000001" y="259.20000000000005"> </text>
<text x="94" y="259.20000000000005"> </text>
<text x="102.4" y="259.20000000000005"> </text>
<text x="110.80000000000001" y="259.20000000000005"> </text>
<text x="119.2" y="259.20000000000005"> </text>
<text x="127.60000000000001" y="259.20000000000005"> </text>
<text x="136" y="259.20000000000005"> </text>
<text x="144.4" y="259.20000000000005"> </text>
<text x="152.8" y="259.20000000000005"> </text>
<text x="161.20000000000002" y="259.20000000000005"> </text>
<text x="169.6" y="259.20000000000005"> </text>
<text x="178" y="259.20000000000005"> </text>
<text x="186.4" y="259.20000000000005"> </text>
<text x="194.8" y="259.20000000000005"> </text>
<text x="203.20000000000002" y="259.20000000000005"> </text>
<text x="211.60000000000002" y="259.20000000000005"> </text>
<text x="220" y="259.20000000000005"> </text>
<text x="228.4" y="259.20000000000005"> </text>
<text x="236.8" y="259.20000000000005"> </text>
<text x="245.20000000000002" y="259.20000000000005"> </text>
<text x="253.60000000000002" y="259.20000000000005"> </text>
<text x="262" y="259.20000000000005"> </text>
<text x="270.40000000000003" y="259.20000000000005"> </text>
<text x="278.8" y="259.20000000000005"> </text>
<text x="287.2" y="259.20000000000005"> </text>
<text x="295.6" y="259.20000000000005"> </text>
<text x="304" y="259.20000000000005"> </text>
<text x="312.40000000000003" y="259.20000000000005"> </text>
<text x="320.8" y="259.20000000000005"> </text>
<text x="329.2" y="259.20000000000005"> </text>
<text x="337.6" y="259.20000000000005"> </text>
<text x="346" y="259.20000000000005"> </text>
<text x="354.40000000000003" y="259.20000000000005"> </text>
<text x="362.8" y="259.20000000000005"> </text>
<text x="371.2" y="259.20000000000005"> </text>
<text x="379.6" y="259.20000000000005"> </text>
<text x="388" y="259.20000000000005"> </text>
<text x="396.40000000000003" y="259.20000000000005"> </text>
<text x="404.8" y="259.20000000000005"> </text>
<text x="413.20000000000005" y="259.20000000000005"> </text>
<text x="421.6" y="259.20000000000005"> </text>
<text x="430" y="259.20000000000005"> </text>
<text x="438.40000000000003" y="259.20000000000005"> </text>
<text x="446.8" y="259.20000000000005"> </text>
<text x="455.20000000000005" y="259.20000000000005"> </text>
<text x="463.6" y="259.20000000000005"> </text>
<text x="472" y="259.20000000000005"> </text>
<text x="480.40000000000003" y="259.20000000000005"> </text>
<text x="488.8" y="259.20000000000005"> </text>
<text x="497.20000000000005" y="259.20000000000005"> </text>
<text x="505.6" y="259.20000000000005"> </text>
<text x="514" y="259.20000000000005"> </text>
<text x="522.4" y="259.20000000000005"> </text>
<text x="530.8000000000001" y="259.20000000000005"> </text>
<text x="539.2" y="259.20000000000005"> </text>
<text x="547.6" y="259.20000000000005"> </text>
<text x="556" y="259.20000000000005"> </text>
<text x="564.4" y="259.20000000000005"> </text>
<text x="572.8000000000001" y="259.20000000000005"> </text>
<text x="581.2" y="259.20000000000005"> </text>
<text x="589.6" y="259.20000000000005"> </text>
<text x="598" y="259.20000000000005"> </text>
<text x="606.4" y="259.20000000000005"> </text>
<text x="614.8000000000001" y="259.20000000000005"> </text>
<text x="623.2" y="259.20000000000005"> </text>
<text x="631.6" y="259.20000000000005"> </text>
<text x="640" y="259.20000000000005"> </text>
<text x="648.4" y="259.20000000000005"> </text>
<text x="656.8000000000001" y="259.20000000000005"> </text>
<text x="665.2" y="259.20000000000005"> </text>
<text x="673.6" y="259.20000000000005"> </text>
<text x="10" y="276"> </text>
<text x="18.4" y="276"> </text>
<text x="26.8" y="276"> </text>
<text x="35.2" y="276"> </text>
<text x="43.6" y="276"> </text>
<text x="52" y="276"> </text>
<text x="60.400000000000006" y="276"> </text>
<text x="68.80000000000001" y="276"> </text>
<text x="77.2" y="276"> </text>
<text x="85.60000000000001" y="276"> </text>
<text x="94" y="276"> </text>
<text x="102.4" y="276"> </text>
<text x="110.80000000000001" y="276"> </text>
<text x="119.2" y="276"> </text>
<text x="127.60000000000001" y="276"> </text>
<text x="136" y="276"> </text>
<text x="144.4" y="276"> </text>
<text x="152.8" y="276"> </text>
<text x="161.20000000000002" y="276"> </text>
<text x="169.6" y="276"> </text>
<text x="178" y="276"> </text>
<text x="186.4" y="276"> </text>
<text x="194.8" y="276"> </text>
<text x="203.20000000000002" y="276"> </text>
<text x="211.60000000000002" y="276"> </text>
<text x="220" y="276"> </text>
<text x="228.4" y="276"> </text>
<text x="236.8" y="276"> </text>
<text x="245.20000000000002" y="276"> </text>
<text x="253.60000000000002" y="276"> </text>
<text x="262" y="276"> </text>
<text x="270.40000000000003" y="276"> </text>
<text x="278.8" y="276"> </text>
<text x="287.2" y="276"> </text>
<text x="295.6" y="276"> </text>
<text x="304" y="276"> </text>
<text x="312.40000000000003" y="276"> </text>
<text x="320.8" y="276"> </text>
<text x="329.2" y="276"> </text>
<text x="337.6" y="276"> </text>
<text x="346" y="276"> </text>
<text x="354.40000000000003" y="276"> </text>
<text x="362.8" y="276"> </text>
<text x="371.2" y="276"> </text>
<text x="379.6" y="276"> </text>
<text x="388" y="276"> </text>
<text x="396.40000000000003" y="276"> </text>
<text x="404.8" y="276"> </text>
<text x="413.20000000000005" y="276"> </text>
<text x="421.6" y="276"> </text>
<text x="430" y="276"> </text>
<text x="438.40000000000003" y="276"> </text>
<text x="446.8" y="276"> </text>
<text x="455.20000000000005" y="276"> </text>
<text x="463.6" y="276"> </text>
<text x="472" y="276"> </text>
<text x="480.40000000000003" y="276"> </text>
<text x="488.8" y="276"> </text>
<text x="497.20000000000005" y="276"> </text>
<text x="505.6" y="276"> </text>
<text x="514" y="276"> </text>
<text x="522.4" y="276"> </text>
<text x="530.8000000000001" y="276"> </text>
<text x="539.2" y="276"> </text>
<text x="547.6" y="276"> </text>
<text x="556" y="276"> </text>
<text x="564.4" y="276"> </text>
<text x="572.8000000000001" y="276"> </text>
<text x="581.2" y="276"> </text>
<text x="589.6" y="276"> </text>
<text x="598" y="276"> </text>
<text x="606.4" y="276"> </text>
<text x="614.8000000000001" y="276"> </text>
<text x="623.2" y="276"> </text>
<text x="631.6" y="276"> </text>
<text x="640" y="276"> </text>
<text x="648.4" y="276"> </text>
<text x="656.8000000000001" y="276"> </text>
<text x="665.2" y="276"> </text>
<text x="673.6" y="276"> </text>
<text x="10" y="292.8"> </text>
<text x="18.4" y="292.8"> </text>
<text x="26.8" y="292.8"> </text>
<text x="35.2" y="292.8"> </text>
<text x="43.6" y="292.8"> </text>
<text x="52" y="292.8"> </text>
<text x="60.400000000000006" y="292.8"> </text>
<text x="68.80000000000001" y="292.8"> </text>
<text x="77.2" y="292.8"> </text>
<text x="85.60000000000001" y="292.8"> </text>
<text x="94" y="292.8"> </text>
<text x="102.4" y="292.8"> </text>
<text x="110.80000000000001" y="292.8"> </text>
<text x="119.2" y="292.8"> </text>
<text x="127.60000000000001" y="292.8"> </text>
<text x="136" y="292.8"> </text>
<text x="144.4" y="292.8"> </text>
<text x="152.8" y="292.8"> </text>
<text x="161.20000000000002" y="292.8"> </text>
<text x="169.6" y="292.8"> </text>
<text x="178" y="292.8"> </text>
<text x="186.4" y="292.8"> </text>
<text x="194.8" y="292.8"> </text>
<text x="203.20000000000002" y="292.8"> </text>
<text x="211.60000000000002" y="292.8"> </text>
<text x="220" y="292.8"> </text>
<text x="228.4" y="292.8"> </text>
<text x="236.8" y="292.8"> </text>
<text x="245.20000000000002" y="292.8"> </text>
<text x="253.60000000000002" y="292.8"> </text>
<text x="262" y="292.8"> </text>
<text x="270.40000000000003" y="292.8"> </text>
<text x="278.8" y="292.8"> </text>
<text x="287.2" y="292.8"> </text>
<text x="295.6" y="292.8"> </text>
<text x="304" y="292.8"> </text>
<text x="312.40000000000003" y="292.8"> </text>
<text x="320.8" y="292.8"> </text>
<text x="329.2" y="292.8"> </text>
<text x="337.6" y="292.8"> </text>
<text x="346" y="292.8"> </text>
<text x="354.40000000000003" y="292.8"> </text>
<text x="362.8" y="292.8"> </text>
<text x="371.2" y="292.8"> </text>
<text x="379.6" y="292.8"> </text>
<text x="388" y="292.8"> </text>
<text x="396.40000000000003" y="292.8"> </text>
<text x="404.8" y="292.8"> </text>
<text x="413.20000000000005" y="292.8"> </text>
<text x="421.6" y="292.8"> </text>
<text x="430" y="292.8"> </text>
<text x="438.40000000000003" y="292.8"> </text>
<text x="446.8" y="292.8"> </text>
<text x="455.20000000000005" y="292.8"> </text>
<text x="463.6" y="292.8"> </text>
<text x="472" y="292.8"> </text>
<text x="480.40000000000003" y="292.8"> </text>
<text x="488.8" y="292.8"> </text>
<text x="497.20000000000005" y="292.8"> </text>
<text x="505.6" y="292.8"> </text>
<text x="514" y="292.8"> </text>
<text x="522.4" y="292.8"> </text>
<text x="530.8000000000001" y="292.8"> </text>
<text x="539.2" y="292.8"> </text>
<text x="547.6" y="292.8"> </text>
<text x="556" y="292.8"> </text>
<text x="564.4" y="292.8"> </text>
<text x="572.8000000000001" y="292.8"> </text>
<text x="581.2" y="292.8"> </text>
<text x="589.6" y="292.8"> </text>
<text x="598" y="292.8"> </text>
<text x="606.4" y="292.8"> </text>
<text x="614.8000000000001" y="292.8"> </text>
<text x="623.2" y="292.8"> </text>
<text x="631.6" y="292.8"> </text>
<text x="640" y="292.8"> </text>
<text x="648.4" y="292.8"> </text>
<text x="656.8000000000001" y="292.8"> </text>
<text x="665.2" y="292.8"> </text>
<text x="673.6" y="292.8"> </text>
<text x="10" y="309.6"> </text>
<text x="18.4" y="309.6"> </text>
<text x="26.8" y="309.6"> </text>
<text x="35.2" y="309.6"> </text>
<text x="43.6" y="309.6"> </text>
<text x="52" y="309.6"> </text>
<text x="60.400000000000006" y="309.6"> </text>
<text x="68.80000000000001" y="309.6"> </text>
<text x="77.2" y="309.6"> </text>
<text x="85.60000000000001" y="309.6"> </text>
<text x="94" y="309.6"> </text>
<text x="102.4" y="309.6"> </text>
<text x="110.80000000000001" y="309.6"> </text>
<text x="119.2" y="309.6"> </text>
<text x="127.60000000000001" y="309.6"> </text>
<text x="136" y="309.6"> </text>
<text x="144.4" y="309.6"> </text>
<text x="152.8" y="309.6"> </text>
<text x="161.20000000000002" y="309.6"> </text>
<text x="169.6" y="309.6"> </text>
<text x="178" y="309.6"> </text>
<text x="186.4" y="309.6"> </text>
<text x="194.8" y="309.6"> </text>
<text x="203.20000000000002" y="309.6"> </text>
<text x="211.60000000000002" y="309.6"> </text>
<text x="220" y="309.6"> </text>
<text x="228.4" y="309.6"> </text>
<text x="236.8" y="309.6"> </text>
<text x="245.20000000000002" y="309.6"> </text>
<text x="253.60000000000002" y="309.6"> </text>
<text x="262" y="309.6"> </text>
<text x="270.40000000000003" y="309.6"> </text>
<text x="278.8" y="309.6"> </text>
<text x="287.2" y="309.6"> </text>
<text x="295.6" y="309.6"> </text>
<text x="304" y="309.6"> </text>
<text x="312.40000000000003" y="309.6"> </text>
<text x="320.8" y="309.6"> </text>
<text x="329.2" y="309.6"> </text>
<text x="337.6" y="309.6"> </text>
<text x="346" y="309.6"> </text>
<text x="354.40000000000003" y="309.6"> </text>
<text x="362.8" y="309.6"> </text>
<text x="371.2" y="309.6"> </text>
<text x="379.6" y="309.6"> </text>
<text x="388" y="309.6"> </text>
<text x="396.40000000000003" y="309.6"> </text>
<text x="404.8" y="309.6"> </text>
<text x="413.20000000000005" y="309.6"> </text>
<text x="421.6" y="309.6"> </text>
<text x="430" y="309.6"> </text>
<text x="438.40000000000003" y="309.6"> </text>
<text x="446.8" y="309.6"> </text>
<text x="455.20000000000005" y="309.6"> </text>
<text x="463.6" y="309.6"> </text>
<text x="472" y="309.6"> </text>
<text x="480.40000000000003" y="309.6"> </text>
<text x="488.8" y="309.6"> </text>
<text x="497.20000000000005" y="309.6"> </text>
<text x="505.6" y="309.6"> </text>
<text x="514" y="309.6"> </text>
<text x="522.4" y="309.6"> </text>
<text x="530.8000000000001" y="309.6"> </text>
<text x="539.2" y="309.6"> </text>
<text x="547.6" y="309.6"> </text>
<text x="556" y="309.6"> </text>
<text x="564.4" y="309.6"> </text>
<text x="572.8000000000001" y="309.6"> </text>
<text x="581.2" y="309.6"> </text>
<text x="589.6" y="309.6"> </text>
<text x="598" y="309.6"> </text>
<text x="606.4" y="309.6"> </text>
<text x="614.8000000000001" y="309.6"> </text>
<text x="623.2" y="309.6"> </text>
<text x="631.6" y="309.6"> </text>
<text x="640" y="309.6"> </text>
<text x="648.4" y="309.6"> </text>
<text x="656.8000000000001" y="309.6"> </text>
<text x="665.2" y="309.6"> </text>
<text x="673.6" y="309.6"> </text>
<text x="10" y="326.40000000000003"> </text>
<text x="18.4" y="326.40000000000003"> </text>
<text x="26.8" y="326.40000000000003"> </text>
<text x="35.2" y="326.40000000000003"> </text>
<text x="43.6" y="326.40000000000003"> </text>
<text x="52" y="326.40000000000003"> </text>
<text x="60.400000000000006" y="326.40000000000003"> </text>
<text x="68.80000000000001" y="326.40000000000003"> </text>
<text x="77.2" y="326.40000000000003"> </text>
<text x="85.60000000000001" y="326.40000000000003"> </text>
<text x="94" y="326.40000000000003"> </text>
<text x="102.4" y="326.40000000000003"> </text>
<text x="110.80000000000001" y="326.40000000000003"> </text>
<text x="119.2" y="326.40000000000003"> </text>
<text x="127.60000000000001" y="326.40000000000003"> </text>
<text x="136" y="326.40000000000003"> </text>
<text x="144.4" y="326.40000000000003"> </text>
<text x="152.8" y="326.40000000000003"> </text>
<text x="161.20000000000002" y="326.40000000000003"> </text>
<text x="169.6" y="326.40000000000003"> </text>
<text x="178" y="326.40000000000003"> </text>
<text x="186.4" y="326.40000000000003"> </text>
<text x="194.8" y="326.40000000000003"> </text>
<text x="203.20000000000002" y="326.40000000000003"> </text>
<text x="211.60000000000002" y="326.40000000000003"> </text>
<text x="220" y="326.40000000000003"> </text>
<text x="228.4" y="326.40000000000003"> </text>
<text x="236.8" y="326.40000000000003"> </text>
<text x="245.20000000000002" y="326.40000000000003"> </text>
<text x="253.60000000000002" y="326.40000000000003"> </text>
<text x="262" y="326.40000000000003"> </text>
<text x="270.40000000000003" y="326.40000000000003"> </text>
<text x="278.8" y="326.40000000000003"> </text>
<text x="287.2" y="326.40000000000003"> </text>
<text x="295.6" y="326.40000000000003"> </text>
<text x="304" y="326.40000000000003"> </text>
<text x="312.40000000000003" y="326.40000000000003"> </text>
<text x="320.8" y="326.40000000000003"> </text>
<text x="329.2" y="326.40000000000003"> </text>
<text x="337.6" y="326.40000000000003"> </text>
<text x="346" y="326.40000000000003"> </text>
<text x="354.40000000000003" y="326.40000000000003"> </text>
<text x="362.8" y="326.40000000000003"> </text>
<text x="371.2" y="326.40000000000003"> </text>
<text x="379.6" y="326.40000000000003"> </text>
<text x="388" y="326.40000000000003"> </text>
<text x="396.40000000000003" y="326.40000000000003"> </text>
<text x="404.8" y="326.40000000000003"> </text>
<text x="413.20000000000005" y="326.40000000000003"> </text>
<text x="421.6" y="326.40000000000003"> </text>
<text x="430" y="326.40000000000003"> </text>
<text x="438.40000000000003" y="326.40000000000003"> </text>
<text x="446.8" y="326.40000000000003"> </text>
<text x="455.20000000000005" y="326.40000000000003"> </text>
<text x="463.6" y="326.40000000000003"> </text>
<text x="472" y="326.40000000000003"> </text>
<text x="480.40000000000003" y="326.40000000000003"> </text>
<text x="488.8" y="326.40000000000003"> </text>
<text x="497.20000000000005" y="326.40000000000003"> </text>
<text x="505.6" y="326.40000000000003"> </text>
<text x="514" y="326.40000000000003"> </text>
<text x="522.4" y="326.40000000000003"> </text>
<text x="530.8000000000001" y="326.40000000000003"> </text>
<text x="539.2" y="326.40000000000003"> </text>
<text x="547.6" y="326.40000000000003"> </text>
<text x="556" y="326.40000000000003"> </text>
<text x="564.4" y="326.40000000000003"> </text>
<text x="572.8000000000001" y="326.40000000000003"> </text>
<text x="581.2" y="326.40000000000003"> </text>
<text x="589.6" y="326.40000000000003"> </text>
<text x="598" y="326.40000000000003"> </text>
<text x="606.4" y="326.40000000000003"> </text>
<text x="614.8000000000001" y="326.40000000000003"> </text>
<text x="623.2" y="326.40000000000003"> </text>
<text x="631.6" y="326.40000000000003"> </text>
<text x="640" y="326.40000000000003"> </text>
<text x="648.4" y="326.40000000000003"> </text>
<text x="656.8000000000001" y="326.40000000000003"> </text>
<text x="665.2" y="326.40000000000003"> </text>
<text x="673.6" y="326.40000000000003"> </text>
<text x="10" y="343.2"> </text>
<text x="18.4" y="343.2"> </text>
<text x="26.8" y="343.2"> </text>
<text x="35.2" y="343.2"> </text>
<text x="43.6" y="343.2"> </text>
<text x="52" y="343.2"> </text>
<text x="60.400000000000006" y="343.2"> </text>
<text x="68.80000000000001" y="343.2"> </text>
<text x="77.2" y="343.2"> </text>
<text x="85.60000000000001" y="343.2"> </text>
<text x="94" y="343.2"> </text>
<text x="102.4" y="343.2"> </text>
<text x="110.80000000000001" y="343.2"> </text>
<text x="119.2" y="343.2"> </text>
<text x="127.60000000000001" y="343.2"> </text>
<text x="136" y="343.2"> </text>
<text x="144.4" y="343.2"> </text>
<text x="152.8" y="343.2"> </text>
<text x="161.20000000000002" y="343.2"> </text>
<text x="169.6" y="343.2"> </text>
<text x="178" y="343.2"> </text>
<text x="186.4" y="343.2"> </text>
<text x="194.8" y="343.2"> </text>
<text x="203.20000000000002" y="343.2"> </text>
<text x="211.60000000000002" y="343.2"> </text>
<text x="220" y="343.2"> </text>
<text x="228.4" y="343.2"> </text>
<text x="236.8" y="343.2"> </text>
<text x="245.20000000000002" y="343.2"> </text>
<text x="253.60000000000002" y="343.2"> </text>
<text x="262" y="343.2"> </text>
<text x="270.40000000000003" y="343.2"> </text>
<text x="278.8" y="343.2"> </text>
<text x="287.2" y="343.2"> </text>
<text x="295.6" y="343.2"> </text>
<text x="304" y="343.2"> </text>
<text x="312.40000000000003" y="343.2"> </text>
<text x="320.8" y="343.2"> </text>
<text x="329.2" y="343.2"> </text>
<text x="337.6" y="343.2"> </text>
<text x="346" y="343.2"> </text>
<text x="354.40000000000003" y="343.2"> </text>
<text x="362.8" y="343.2"> </text>
<text x="371.2" y="343.2"> </text>
<text x="379.6" y="343.2"> </text>
<text x="388" y="343.2"> </text>
<text x="396.40000000000003" y="343.2"> </text>
<text x="404.8" y="343.2"> </text>
<text x="413.20000000000005" y="343.2"> </text>
<text x="421.6" y="343.2"> </text>
<text x="430" y="343.2"> </text>
<text x="438.40000000000003" y="343.2"> </text>
<text x="446.8" y="343.2"> </text>
<text x="455.20000000000005" y="343.2"> </text>
<text x="463.6" y="343.2"> </text>
<text x="472" y="343.2"> </text>
<text x="480.40000000000003" y="343.2"> </text>
<text x="488.8" y="343.2"> </text>
<text x="497.20000000000005" y="343.2"> </text>
<text x="505.6" y="343.2"> </text>
<text x="514" y="343.2"> </text>
<text x="522.4" y="343.2"> </text>
<text x="530.8000000000001" y="343.2"> </text>
<text x="539.2" y="343.2"> </text>
<text x="547.6" y="343.2"> </text>
<text x="556" y="343.2"> </text>
<text x="564.4" y="343.2"> </text>
<text x="572.8000000000001" y="343.2"> </text>
<text x="581.2" y="343.2"> </text>
<text x="589.6" y="343.2"> </text>
<text x="598" y="343.2"> </text>
<text x="606.4" y="343.2"> </text>
<text x="614.8000000000001" y="343.2"> </text>
<text x="623.2" y="343.2"> </text>
<text x="631.6" y="343.2"> </text>
<text x="640" y="343.2"> </text>
<text x="648.4" y="343.2"> </text>
<text x="656.8000000000001" y="343.2"> </text>
<text x="665.2" y="343.2"> </text>
<text x="673.6" y="343.2"> </text>
<text x="10" y="360"> </text>
<text x="18.4" y="360"> </text>
<text x="26.8" y="360"> </text>
<text x="35.2" y="360"> </text>
<text x="43.6" y="360"> </text>
<text x="52" y="360"> </text>
<text x="60.400000000000006" y="360"> </text>
<text x="68.80000000000001" y="360"> </text>
<text x="77.2" y="360"> </text>
<text x="85.60000000000001" y="360"> </text>
<text x="94" y="360"> </text>
<text x="102.4" y="360"> </text>
<text x="110.80000000000001" y="360"> </text>
<text x="119.2" y="360"> </text>
<text x="127.60000000000001" y="360"> </text>
<text x="136" y="360"> </text>
<text x="144.4" y="360"> </text>
<text x="152.8" y="360"> </text>
<text x="161.20000000000002" y="360"> </text>
<text x="169.6" y="360"> </text>
<text x="178" y="360"> </text>
<text x="186.4" y="360"> </text>
<text x="194.8" y="360"> </text>
<text x="203.20000000000002" y="360"> </text>
<text x="211.60000000000002" y="360"> </text>
<text x="220" y="360"> </text>
<text x="228.4" y="360"> </text>
<text x="236.8" y="360"> </text>
<text x="245.20000000000002" y="360"> </text>
<text x="253.60000000000002" y="360"> </text>
<text x="262" y="360"> </text>
<text x="270.40000000000003" y="360"> </text>
<text x="278.8" y="360"> </text>
<text x="287.2" y="360"> </text>
<text x="295.6" y="360"> </text>
<text x="304" y="360"> </text>
<text x="312.40000000000003" y="360"> </text>
<text x="320.8" y="360"> </text>
<text x="329.2" y="360"> </text>
<text x="337.6" y="360"> </text>
<text x="346" y="360"> </text>
<text x="354.40000000000003" y="360"> </text>
<text x="362.8" y="360"> </text>
<text x="371.2" y="360"> </text>
<text x="379.6" y="360"> </text>
<text x="388" y="360"> </text>
<text x="396.40000000000003" y="360"> </text>
<text x="404.8" y="360"> </text>
<text x="413.20000000000005" y="360"> </text>
<text x="421.6" y="360"> </text>
<text x="430" y="360"> </text>
<text x="438.40000000000003" y="360"> </text>
<text x="446.8" y="360"> </text>
<text x="455.20000000000005" y="360"> </text>
<text x="463.6" y="360"> </text>
<text x="472" y="360"> </text>
<text x="480.40000000000003" y="360"> </text>
<text x="488.8" y="360"> </text>
<text x="497.20000000000005" y="360"> </text>
<text x="505.6" y="360"> </text>
<text x="514" y="360"> </text>
<text x="522.4" y="360"> </text>
<text x="530.8000000000001" y="360"> </text>
<text x="539.2" y="360"> </text>
<text x="547.6" y="360"> </text>
<text x="556" y="360"> </text>
<text x="564.4" y="360"> </text>
<text x="572.8000000000001" y="360"> </text>
<text x="581.2" y="360"> </text>
<text x="589.6" y="360"> </text>
<text x="598" y="360"> </text>
<text x="606.4" y="360"> </text>
<text x="614.8000000000001" y="360"> </text>
<text x="623.2" y="360"> </text>
<text x="631.6" y="360"> </text>
<text x="640" y="360"> </text>
<text x="648.4" y="360"> </text>
<text x="656.8000000000001" y="360"> </text>
<text x="665.2" y="360"> </text>
<text x="673.6" y="360"> </text>
<text x="10" y="376.8"> </text>
<text x="18.4" y="376.8"> </text>
<text x="26.8" y="376.8"> </text>
<text x="35.2" y="376.8"> </text>
<text x="43.6" y="376.8"> </text>
<text x="52" y="376.8"> </text>
<text x="60.400000000000006" y="376.8"> </text>
<text x="68.80000000000001" y="376.8"> </text>
<text x="77.2" y="376.8"> </text>
<text x="85.60000000000001" y="376.8"> </text>
<text x="94" y="376.8"> </text>
<text x="102.4" y="376.8"> </text>
<text x="110.80000000000001" y="376.8"> </text>
<text x="119.2" y="376.8"> </text>
<text x="127.60000000000001" y="376.8"> </text>
<text x="136" y="376.8"> </text>
<text x="144.4" y="376.8"> </text>
<text x="152.8" y="376.8"> </text>
<text x="161.20000000000002" y="376.8"> </text>
<text x="169.6" y="376.8"> </text>
<text x="178" y="376.8"> </text>
<text x="186.4" y="376.8"> </text>
<text x="194.8" y="376.8"> </text>
<text x="203.20000000000002" y="376.8"> </text>
<text x="211.60000000000002" y="376.8"> </text>
<text x="220" y="376.8"> </text>
<text x="228.4" y="376.8"> </text>
<text x="236.8" y="376.8"> </text>
<text x="245.20000000000002" y="376.8"> </text>
<text x="253.60000000000002" y="376.8"> </text>
<text x="262" y="376.8"> </text>
<text x="270.40000000000003" y="376.8"> </text>
<text x="278.8" y="376.8"> </text>
<text x="287.2" y="376.8"> </text>
<text x="295.6" y="376.8"> </text>
<text x="304" y="376.8"> </text>
<text x="312.40000000000003" y="376.8"> </text>
<text x="320.8" y="376.8"> </text>
<text x="329.2" y="376.8"> </text>
<text x="337.6" y="376.8"> </text>
<text x="346" y="376.8"> </text>
<text x="354.40000000000003" y="376.8"> </text>
<text x="362.8" y="376.8"> </text>
<text x="371.2" y="376.8"> </text>
<text x="379.6" y="376.8"> </text>
<text x="388" y="376.8"> </text>
<text x="396.40000000000003" y="376.8"> </text>
<text x="404.8" y="376.8"> </text>
<text x="413.20000000000005" y="376.8"> </text>
<text x="421.6" y="376.8"> </text>
<text x="430" y="376.8"> </text>
<text x="438.40000000000003" y="376.8"> </text>
<text x="446.8" y="376.8"> </text>
<text x="455.20000000000005" y="376.8"> </text>
<text x="463.6" y="376.8"> </text>
<text x="472" y="376.8"> </text>
<text x="480.40000000000003" y="376.8"> </text>
<text x="488.8" y="376.8"> </text>
<text x="497.20000000000005" y="376.8"> </text>
<text x="505.6" y="376.8"> </text>
<text x="514" y="376.8"> </text>
<text x="522.4" y="376.8"> </text>
<text x="530.8000000000001" y="376.8"> </text>
<text x="539.2" y="376.8"> </text>
<text x="547.6" y="376.8"> </text>
<text x="556" y="376.8"> </text>
<text x="564.4" y="376.8"> </text>
<text x="572.8000000000001" y="376.8"> </text>
<text x="581.2" y="376.8"> </text>
<text x="589.6" y="376.8"> </text>
<text x="598" y="376.8"> </text>
<text x="606.4" y="376.8"> </text>
<text x="614.8000000000001" y="376.8"> </text>
<text x="623.2" y="376.8"> </text>
<text x="631.6" y="376.8"> </text>
<text x="640" y="376.8"> </text>
<text x="648.4" y="376.8"> </text>
<text x="656.8000000000001" y="376.8"> </text>
<text x="665.2" y="376.8"> </text>
<text x="673.6" y="376.8"> </text>
<text x="10" y="393.6"> </text>
<text x="18.4" y="393.6"> </text>
<text x="26.8" y="393.6"> </text>
<text x="35.2" y="393.6"> </text>
<text x="43.6" y="393.6"> </text>
<text x="52" y="393.6"> </text>
<text x="60.400000000000006" y="393.6"> </text>
<text x="68.80000000000001" y="393.6"> </text>
<text x="77.2" y="393.6"> </text>
<text x="85.60000000000001" y="393.6"> </text>
<text x="94" y="393.6"> </text>
<text x="102.4" y="393.6"> </text>
<text x="110.80000000000001" y="393.6"> </text>
<text x="119.2" y="393.6"> </text>
<text x="127.60000000000001" y="393.6"> </text>
<text x="136" y="393.6"> </text>
<text x="144.4" y="393.6"> </text>
<text x="152.8" y="393.6"> </text>
<text x="161.20000000000002" y="393.6"> </text>
<text x="169.6" y="393.6"> </text>
<text x="178" y="393.6"> </text>
<text x="186.4" y="393.6"> </text>
<text x="194.8" y="393.6"> </text>
<text x="203.20000000000002" y="393.6"> </text>
<text x="211.60000000000002" y="393.6"> </text>
<text x="220" y="393.6"> </text>
<text x="228.4" y="393.6"> </text>
<text x="236.8" y="393.6"> </text>
<text x="245.20000000000002" y="393.6"> </text>
<text x="253.60000000000002" y="393.6"> </text>
<text x="262" y="393.6"> </text>
<text x="270.40000000000003" y="393.6"> </text>
<text x="278.8" y="393.6"> </text>
<text x="287.2" y="393.6"> </text>
<text x="295.6" y="393.6"> </text>
<text x="304" y="393.6"> </text>
<text x="312.40000000000003" y="393.6"> </text>
<text x="320.8" y="393.6"> </text>
<text x="329.2" y="393.6"> </text>
<text x="337.6" y="393.6"> </text>
<text x="346" y="393.6"> </text>
<text x="354.40000000000003" y="393.6"> </text>
<text x="362.8" y="393.6"> </text>
<text x="371.2" y="393.6"> </text>
<text x="379.6" y="393.6"> </text>
<text x="388" y="393.6"> </text>
<text x="396.40000000000003" y="393.6"> </text>
<text x="404.8" y="393.6"> </text>
<text x="413.20000000000005" y="393.6"> </text>
<text x="421.6" y="393.6"> </text>
<text x="430" y="393.6"> </text>
<text x="438.40000000000003" y="393.6"> </text>
<text x="446.8" y="393.6"> </text>
<text x="455.20000000000005" y="393.6"> </text>
<text x="463.6" y="393.6"> </text>
<text x="472" y="393.6"> </text>
<text x="480.40000000000003" y="393.6"> </text>
<text x="488.8" y="393.6"> </text>
<text x="497.20000000000005" y="393.6"> </text>
<text x="505.6" y="393.6"> </text>
<text x="514" y="393.6"> </text>
<text x="522.4" y="393.6"> </text>
<text x="530.8000000000001" y="393.6"> </text>
<text x="539.2" y="393.6"> </text>
<text x="547.6" y="393.6"> </text>
<text x="556" y="393.6"> </text>
<text x="564.4" y="393.6"> </text>
<text x="572.8000000000001" y="393.6"> </text>
<text x="581.2" y="393.6"> </text>
<text x="589.6" y="393.6"> </text>
<text x="598" y="393.6"> </text>
<text x="606.4" y="393.6"> </text>
<text x="614.8000000000001" y="393.6"> </text>
<text x="623.2" y="393.6"> </text>
<text x="631.6" y="393.6"> </text>
<text x="640" y="393.6"> </text>
<text x="648.4" y="393.6"> </text>
<text x="656.8000000000001" y="393.6"> </text>
<text x="665.2" y="393.6"> </text>
<text x="673.6" y="393.6"> </text>
<text x="10" y="410.40000000000003"> </text>
<text x="18.4" y="410.40000000000003"> </text>
<text x="26.8" y="410.40000000000003"> </text>
<text x="35.2" y="410.40000000000003"> </text>
<text x="43.6" y="410.40000000000003"> </text>
<text x="52" y="410.40000000000003"> </text>
<text x="60.400000000000006" y="410.40000000000003"> </text>
<text x="68.80000000000001" y="410.40000000000003"> </text>
<text x="77.2" y="410.40000000000003"> </text>
<text x="85.60000000000001" y="410.40000000000003"> </text>
<text x="94" y="410.40000000000003"> </text>
<text x="102.4" y="410.40000000000003"> </text>
<text x="110.80000000000001" y="410.40000000000003"> </text>
<text x="119.2" y="410.40000000000003"> </text>
<text x="127.60000000000001" y="410.40000000000003"> </text>
<text x="136" y="410.40000000000003"> </text>
<text x="144.4" y="410.40000000000003"> </text>
<text x="152.8" y="410.40000000000003"> </text>
<text x="161.20000000000002" y="410.40000000000003"> </text>
<text x="169.6" y="410.40000000000003"> </text>
<text x="178" y="410.40000000000003"> </text>
<text x="186.4" y="410.40000000000003"> </text>
<text x="194.8" y="410.40000000000003"> </text>
<text x="203.20000000000002" y="410.40000000000003"> </text>
<text x="211.60000000000002" y="410.40000000000003"> </text>
<text x="220" y="410.40000000000003"> </text>
<text x="228.4" y="410.40000000000003"> </text>
<text x="236.8" y="410.40000000000003"> </text>
<text x="245.20000000000002" y="410.40000000000003"> </text>
<text x="253.60000000000002" y="410.40000000000003"> </text>
<text x="262" y="410.40000000000003"> </text>
<text x="270.40000000000003" y="410.40000000000003"> </text>
<text x="278.8" y="410.40000000000003"> </text>
<text x="287.2" y="410.40000000000003"> </text>
<text x="295.6" y="410.40000000000003"> </text>
<text x="304" y="410.40000000000003"> </text>
<text x="312.40000000000003" y="410.40000000000003"> </text>
<text x="320.8" y="410.40000000000003"> </text>
<text x="329.2" y="410.40000000000003"> </text>
<text x="337.6" y="410.40000000000003"> </text>
<text x="346" y="410.40000000000003"> </text>
<text x="354.40000000000003" y="410.40000000000003"> </text>
<text x="362.8" y="410.40000000000003"> </text>
<text x="371.2" y="410.40000000000003"> </text>
<text x="379.6" y="410.40000000000003"> </text>
<text x="388" y="410.40000000000003"> </text>
<text x="396.40000000000003" y="410.40000000000003"> </text>
<text x="404.8" y="410.40000000000003"> </text>
<text x="413.20000000000005" y="410.40000000000003"> </text>
<text x="421.6" y="410.40000000000003"> </text>
<text x="430" y="410.40000000000003"> </text>
<text x="438.40000000000003" y="410.40000000000003"> </text>
<text x="446.8" y="410.40000000000003"> </text>
<text x="455.20000000000005" y="410.40000000000003"> </text>
<text x="463.6" y="410.40000000000003"> </text>
<text x="472" y="410.40000000000003"> </text>
<text x="480.40000000000003" y="410.40000000000003"> </text>
<text x="488.8" y="410.40000000000003"> </text>
<text x="497.20000000000005" y="410.40000000000003"> </text>
<text x="505.6" y="410.40000000000003"> </text>
<text x="514" y="410.40000000000003"> </text>
<text x="522.4" y="410.40000000000003"> </text>
<text x="530.8000000000001" y="410.40000000000003"> </text>
<text x="539.2" y="410.40000000000003"> </text>
<text x="547.6" y="410.40000000000003"> </text>
<text x="556" y="410.40000000000003"> </text>
<text x="564.4" y="410.40000000000003"> </text>
<text x="572.8000000000001" y="410.40000000000003"> </text>
<text x="581.2" y="410.40000000000003"> </text>
<text x="589.6" y="410.40000000000003"> </text>
<text x="598" y="410.40000000000003"> </text>
<text x="606.4" y="410.40000000000003"> </text>
<text x="614.8000000000001" y="410.40000000000003"> </text>
<text x="623.2" y="410.40000000000003"> </text>
<text x="631.6" y="410.40000000000003"> </text>
<text x="640" y="410.40000000000003"> </text>
<text x="648.4" y="410.40000000000003"> </text>
<text x="656.8000000000001" y="410.40000000000003"> </text>
<text x="665.2" y="410.40000000000003"> </text>
<text x="673.6" y="410.40000000000003"> </text>
<rect x="26.8" y="43.6" width="8.4" height="16.8" fill="#abb2bf"/>
</g>
</svg>