<svg xmlns="http://www.w3.org/2000/svg" width="440" height="154.4" font-family="Hack, Monaco, Courier, monospace" font-size="14">
<rect width="100%" height="100%" fill="#282c34"/>
<g fill="#abb2bf">
<text x="10" y="24" fill="#e06c75">~</text>
<text x="18.4" y="24" fill="#e06c75">/</text>
<text x="26.8" y="24" fill="#e06c75">p</text>
<text x="35.2" y="24" fill="#e06c75">r</text>
<text x="43.6" y="24" fill="#e06c75">o</text>
<text x="52" y="24" fill="#e06c75">j</text>
<text x="60.400000000000006" y="24" fill="#e06c75">e</text>
<text x="68.80000000000001" y="24" fill="#e06c75">c</text>
<text x="77.2" y="24" fill="#e06c75">t</text>
<text x="85.60000000000001" y="24" fill="#e06c75">s</text>
<text x="94" y="24" fill="#e06c75">/</text>
<text x="102.4" y="24" fill="#e06c75">s</text>
<text x="110.80000000000001" y="24" fill="#e06c75">h</text>
<text x="119.2" y="24" fill="#e06c75">e</text>
<text x="127.60000000000001" y="24" fill="#e06c75">l</text>
<text x="136" y="24" fill="#e06c75">l</text>
<text x="144.4" y="24" fill="#e06c75">w</text>
<text x="152.8" y="24" fill="#e06c75">r</text>
<text x="161.20000000000002" y="24" fill="#e06c75">i</text>
<text x="169.6" y="24" fill="#e06c75">g</text>
<text x="178" y="24" fill="#e06c75">h</text>
<text x="186.4" y="24" fill="#e06c75">t</text>
<text x="194.8" y="24"> </text>
<text x="203.20000000000002" y="24" fill="#c678dd">m</text>
<text x="211.60000000000002" y="24" fill="#c678dd">a</text>
<text x="220" y="24" fill="#c678dd">i</text>
<text x="228.4" y="24" fill="#c678dd">n</text>
<text x="236.8" y="24"> </text>
<text x="245.20000000000002" y="24" fill="#98c379">✓</text>
<text x="253.60000000000002" y="24"> </text>
<text x="262" y="24"> </text>
<text x="270.40000000000003" y="24"> </text>
<text x="278.8" y="24"> </text>
<text x="287.2" y="24"> </text>
<text x="295.6" y="24"> </text>
<text x="304" y="24"> </text>
<text x="312.40000000000003" y="24"> </text>
<text x="320.8" y="24"> </text>
<text x="329.2" y="24"> </text>
<text x="337.6" y="24"> </text>
<text x="346" y="24"> </text>
<text x="354.40000000000003" y="24"> </text>
<text x="362.8" y="24"> </text>
<text x="371.2" y="24"> </text>
<text x="379.6" y="24"> </text>
<text x="388" y="24"> </text>
<text x="396.40000000000003" y="24"> </text>
<text x="404.8" y="24"> </text>
<text x="413.20000000000005" y="24"> </text>
<text x="421.6" y="24"> </text>
<text x="10" y="40.8" fill="#56b6c2" font-weight="bold">$</text>
<text x="18.4" y="40.8" fill="#56b6c2" font-weight="bold"> </text>
<text x="26.8" y="40.8">l</text>
<text x="35.2" y="40.8">s</text>
<text x="43.6" y="40.8"> </text>
<text x="52" y="40.8">-</text>
<text x="60.400000000000006" y="40.8">l</text>
<text x="68.80000000000001" y="40.8">a</text>
<text x="77.2" y="40.8"> </text>
<text x="85.60000000000001" y="40.8"> </text>
<text x="94" y="40.8"> </text>
<text x="102.4" y="40.8"> </text>
<text x="110.80000000000001" y="40.8"> </text>
<text x="119.2" y="40.8"> </text>
<text x="127.60000000000001" y="40.8"> </text>
<text x="136" y="40.8"> </text>
<text x="144.4" y="40.8"> </text>
<text x="152.8" y="40.8"> </text>
<text x="161.20000000000002" y="40.8"> </text>
<text x="169.6" y="40.8"> </text>
<text x="178" y="40.8"> </text>
<text x="186.4" y="40.8"> </text>
<text x="194.8" y="40.8"> </text>
<text x="203.20000000000002" y="40.8"> </text>
<text x="211.60000000000002" y="40.8"> </text>
<text x="220" y="40.8"> </text>
<text x="228.4" y="40.8"> </text>
<text x="236.8" y="40.8"> </text>
<text x="245.20000000000002" y="40.8"> </text>
<text x="253.60000000000002" y="40.8"> </text>
<text x="262" y="40.8"> </text>
<text x="270.40000000000003" y="40.8"> </text>
<text x="278.8" y="40.8"> </text>
<text x="287.2" y="40.8"> </text>
<text x="295.6" y="40.8"> </text>
<text x="304" y="40.8"> </text>
<text x="312.40000000000003" y="40.8"> </text>
<text x="320.8" y="40.8"> </text>
<text x="329.2" y="40.8"> </text>
<text x="337.6" y="40.8"> </text>
<text x="346" y="40.8"> </text>
<text x="354.40000000000003" y="40.8"> </text>
<text x="362.8" y="40.8"> </text>
<text x="371.2" y="40.8"> </text>
<text x="379.6" y="40.8"> </text>
<text x="388" y="40.8"> </text>
<text x="396.40000000000003" y="40.8"> </text>
<text x="404.8" y="40.8"> </text>
<text x="413.20000000000005" y="40.8"> </text>
<text x="421.6" y="40.8"> </text>
<text x="10" y="57.6" fill="#e5c07b">d</text>
<text x="18.4" y="57.6" fill="#e5c07b">r</text>
<text x="26.8" y="57.6" fill="#e5c07b">w</text>
<text x="35.2" y="57.6" fill="#e5c07b">x</text>
<text x="43.6" y="57.6" fill="#e5c07b">r</text>
<text x="52" y="57.6" fill="#e5c07b">-</text>
<text x="60.400000000000006" y="57.6" fill="#e5c07b">x</text>
<text x="68.80000000000001" y="57.6" fill="#e5c07b">r</text>
<text x="77.2" y="57.6" fill="#e5c07b">-</text>
<text x="85.60000000000001" y="57.6" fill="#e5c07b">x</text>
<text x="94" y="57.6"> </text>
<text x="102.4" y="57.6"> </text>
<text x="110.80000000000001" y="57.6" fill="#e06c75">s</text>
<text x="119.2" y="57.6" fill="#e06c75">r</text>
<text x="127.60000000000001" y="57.6" fill="#e06c75">c</text>
<text x="136" y="57.6">/</text>
<text x="144.4" y="57.6"> </text>
<text x="152.8" y="57.6"> </text>
<text x="161.20000000000002" y="57.6"> </text>
<text x="169.6" y="57.6"> </text>
<text x="178" y="57.6"> </text>
<text x="186.4" y="57.6"> </text>
<text x="194.8" y="57.6"> </text>
<text x="203.20000000000002" y="57.6"> </text>
<text x="211.60000000000002" y="57.6"> </text>
<text x="220" y="57.6"> </text>
<text x="228.4" y="57.6"> </text>
<text x="236.8" y="57.6"> </text>
<text x="245.20000000000002" y="57.6"> </text>
<text x="253.60000000000002" y="57.6"> </text>
<text x="262" y="57.6"> </text>
<text x="270.40000000000003" y="57.6"> </text>
<text x="278.8" y="57.6"> </text>
<text x="287.2" y="57.6"> </text>
<text x="295.6" y="57.6"> </text>
<text x="304" y="57.6"> </text>
<text x="312.40000000000003" y="57.6"> </text>
<text x="320.8" y="57.6"> </text>
<text x="329.2" y="57.6"> </text>
<text x="337.6" y="57.6"> </text>
<text x="346" y="57.6"> </text>
<text x="354.40000000000003" y="57.6"> </text>
<text x="362.8" y="57.6"> </text>
<text x="371.2" y="57.6"> </text>
<text x="379.6" y="57.6"> </text>
<text x="388" y="57.6"> </text>
<text x="396.40000000000003" y="57.6"> </text>
<text x="404.8" y="57.6"> </text>
<text x="413.20000000000005" y="57.6"> </text>
<text x="421.6" y="57.6"> </text>
<text x="10" y="74.4" fill="#e5c07b">d</text>
<text x="18.4" y="74.4" fill="#e5c07b">r</text>
<text x="26.8" y="74.4" fill="#e5c07b">w</text>
<text x="35.2" y="74.4" fill="#e5c07b">x</text>
<text x="43.6" y="74.4" fill="#e5c07b">r</text>
<text x="52" y="74.4" fill="#e5c07b">-</text>
<text x="60.400000000000006" y="74.4" fill="#e5c07b">x</text>
<text x="68.80000000000001" y="74.4" fill="#e5c07b">r</text>
<text x="77.2" y="74.4" fill="#e5c07b">-</text>
<text x="85.60000000000001" y="74.4" fill="#e5c07b">x</text>
<text x="94" y="74.4"> </text>
<text x="102.4" y="74.4"> </text>
<text x="110.80000000000001" y="74.4" fill="#e06c75">d</text>
<text x="119.2" y="74.4" fill="#e06c75">o</text>
<text x="127.60000000000001" y="74.4" fill="#e06c75">c</text>
<text x="136" y="74.4" fill="#e06c75">s</text>
<text x="144.4" y="74.4">/</text>
<text x="152.8" y="74.4"> </text>
<text x="161.20000000000002" y="74.4"> </text>
<text x="169.6" y="74.4"> </text>
<text x="178" y="74.4"> </text>
<text x="186.4" y="74.4"> </text>
<text x="194.8" y="74.4"> </text>
<text x="203.20000000000002" y="74.4"> </text>
<text x="211.60000000000002" y="74.4"> </text>
<text x="220" y="74.4"> </text>
<text x="228.4" y="74.4"> </text>
<text x="236.8" y="74.4"> </text>
<text x="245.20000000000002" y="74.4"> </text>
<text x="253.60000000000002" y="74.4"> </text>
<text x="262" y="74.4"> </text>
<text x="270.40000000000003" y="74.4"> </text>
<text x="278.8" y="74.4"> </text>
<text x="287.2" y="74.4"> </text>
<text x="295.6" y="74.4"> </text>
<text x="304" y="74.4"> </text>
<text x="312.40000000000003" y="74.4"> </text>
<text x="320.8" y="74.4"> </text>
<text x="329.2" y="74.4"> </text>
<text x="337.6" y="74.4"> </text>
<text x="346" y="74.4"> </text>
<text x="354.40000000000003" y="74.4"> </text>
<text x="362.8" y="74.4"> </text>
<text x="371.2" y="74.4"> </text>
<text x="379.6" y="74.4"> </text>
<text x="388" y="74.4"> </text>
<text x="396.40000000000003" y="74.4"> </text>
<text x="404.8" y="74.4"> </text>
<text x="413.20000000000005" y="74.4"> </text>
<text x="421.6" y="74.4"> </text>
<text x="10" y="91.2">-</text>
<text x="18.4" y="91.2">r</text>
<text x="26.8" y="91.2">w</text>
<text x="35.2" y="91.2">-</text>
<text x="43.6" y="91.2">r</text>
<text x="52" y="91.2">-</text>
<text x="60.400000000000006" y="91.2">-</text>
<text x="68.80000000000001" y="91.2">r</text>
<text x="77.2" y="91.2">-</text>
<text x="85.60000000000001" y="91.2">-</text>
<text x="94" y="91.2"> </text>
<text x="102.4" y="91.2"> </text>
<text x="110.80000000000001" y="91.2" fill="#56b6c2">R</text>
<text x="119.2" y="91.2" fill="#56b6c2">E</text>
<text x="127.60000000000001" y="91.2" fill="#56b6c2">A</text>
<text x="136" y="91.2" fill="#56b6c2">D</text>
<text x="144.4" y="91.2" fill="#56b6c2">M</text>
<text x="152.8" y="91.2" fill="#56b6c2">E</text>
<text x="161.20000000000002" y="91.2" fill="#56b6c2">.</text>
<text x="169.6" y="91.2" fill="#56b6c2">m</text>
<text x="178" y="91.2" fill="#56b6c2">d</text>
<text x="186.4" y="91.2"> </text>
<text x="194.8" y="91.2"> </text>
<text x="203.20000000000002" y="91.2"> </text>
<text x="211.60000000000002" y="91.2"> </text>
<text x="220" y="91.2"> </text>
<text x="228.4" y="91.2"> </text>
<text x="236.8" y="91.2"> </text>
<text x="245.20000000000002" y="91.2"> </text>
<text x="253.60000000000002" y="91.2"> </text>
<text x="262" y="91.2"> </text>
<text x="270.40000000000003" y="91.2"> </text>
<text x="278.8" y="91.2"> </text>
<text x="287.2" y="91.2"> </text>
<text x="295.6" y="91.2"> </text>
<text x="304" y="91.2"> </text>
<text x="312.40000000000003" y="91.2"> </text>
<text x="320.8" y="91.2"> </text>
<text x="329.2" y="91.2"> </text>
<text x="337.6" y="91.2"> </text>
<text x="346" y="91.2"> </text>
<text x="354.40000000000003" y="91.2"> </text>
<text x="362.8" y="91.2"> </text>
<text x="371.2" y="91.2"> </text>
<text x="379.6" y="91.2"> </text>
<text x="388" y="91.2"> </text>
<text x="396.40000000000003" y="91.2"> </text>
<text x="404.8" y="91.2"> </text>
<text x="413.20000000000005" y="91.2"> </text>
<text x="421.6" y="91.2"> </text>
<text x="10" y="108">-</text>
<text x="18.4" y="108">r</text>
<text x="26.8" y="108">w</text>
<text x="35.2" y="108">-</text>
<text x="43.6" y="108">r</text>
<text x="52" y="108">-</text>
<text x="60.400000000000006" y="108">-</text>
<text x="68.80000000000001" y="108">r</text>
<text x="77.2" y="108">-</text>
<text x="85.60000000000001" y="108">-</text>
<text x="94" y="108"> </text>
<text x="102.4" y="108"> </text>
<text x="110.80000000000001" y="108" fill="#98c379">p</text>
<text x="119.2" y="108" fill="#98c379">a</text>
<text x="127.60000000000001" y="108" fill="#98c379">c</text>
<text x="136" y="108" fill="#98c379">k</text>
<text x="144.4" y="108" fill="#98c379">a</text>
<text x="152.8" y="108" fill="#98c379">g</text>
<text x="161.20000000000002" y="108" fill="#98c379">e</text>
<text x="169.6" y="108" fill="#98c379">.</text>
<text x="178" y="108" fill="#98c379">j</text>
<text x="186.4" y="108" fill="#98c379">s</text>
<text x="194.8" y="108" fill="#98c379">o</text>
<text x="203.20000000000002" y="108" fill="#98c379">n</text>
<text x="211.60000000000002" y="108"> </text>
<text x="220" y="108"> </text>
<text x="228.4" y="108"> </text>
<text x="236.8" y="108"> </text>
<text x="245.20000000000002" y="108"> </text>
<text x="253.60000000000002" y="108"> </text>
<text x="262" y="108"> </text>
<text x="270.40000000000003" y="108"> </text>
<text x="278.8" y="108"> </text>
<text x="287.2" y="108"> </text>
<text x="295.6" y="108"> </text>
<text x="304" y="108"> </text>
<text x="312.40000000000003" y="108"> </text>
<text x="320.8" y="108"> </text>
<text x="329.2" y="108"> </text>
<text x="337.6" y="108"> </text>
<text x="346" y="108"> </text>
<text x="354.40000000000003" y="108"> </text>
<text x="362.8" y="108"> </text>
<text x="371.2" y="108"> </text>
<text x="379.6" y="108"> </text>
<text x="388" y="108"> </text>
<text x="396.40000000000003" y="108"> </text>
<text x="404.8" y="108"> </text>
<text x="413.20000000000005" y="108"> </text>
<text x="421.6" y="108"> </text>
<text x="10" y="124.80000000000001">4</text>
<text x="18.4" y="124.80000000000001"> </text>
<text x="26.8" y="124.80000000000001">i</text>
<text x="35.2" y="124.80000000000001">t</text>
<text x="43.6" y="124.80000000000001">e</text>
<text x="52" y="124.80000000000001">m</text>
<text x="60.400000000000006" y="124.80000000000001">s</text>
<text x="68.80000000000001" y="124.80000000000001"> </text>
<text x="77.2" y="124.80000000000001"> </text>
<text x="85.60000000000001" y="124.80000000000001"> </text>
<text x="94" y="124.80000000000001"> </text>
<text x="102.4" y="124.80000000000001"> </text>
<text x="110.80000000000001" y="124.80000000000001"> </text>
<text x="119.2" y="124.80000000000001"> </text>
<text x="127.60000000000001" y="124.80000000000001"> </text>
<text x="136" y="124.80000000000001"> </text>
<text x="144.4" y="124.80000000000001"> </text>
<text x="152.8" y="124.80000000000001"> </text>
<text x="161.20000000000002" y="124.80000000000001"> </text>
<text x="169.6" y="124.80000000000001"> </text>
<text x="178" y="124.80000000000001"> </text>
<text x="186.4" y="124.80000000000001"> </text>
<text x="194.8" y="124.80000000000001"> </text>
<text x="203.20000000000002" y="124.80000000000001"> </text>
<text x="211.60000000000002" y="124.80000000000001"> </text>
<text x="220" y="124.80000000000001"> </text>
<text x="228.4" y="124.80000000000001"> </text>
<text x="236.8" y="124.80000000000001"> </text>
<text x="245.20000000000002" y="124.80000000000001"> </text>
<text x="253.60000000000002" y="124.80000000000001"> </text>
<text x="262" y="124.80000000000001"> </text>
<text x="270.40000000000003" y="124.80000000000001"> </text>
<text x="278.8" y="124.80000000000001"> </text>
<text x="287.2" y="124.80000000000001"> </text>
<text x="295.6" y="124.80000000000001"> </text>
<text x="304" y="124.80000000000001"> </text>
<text x="312.40000000000003" y="124.80000000000001"> </text>
<text x="320.8" y="124.80000000000001"> </text>
<text x="329.2" y="124.80000000000001"> </text>
<text x="337.6" y="124.80000000000001"> </text>
<text x="346" y="124.80000000000001"> </text>
<text x="354.40000000000003" y="124.80000000000001"> </text>
<text x="362.8" y="124.80000000000001"> </text>
<text x="371.2" y="124.80000000000001"> </text>
<text x="379.6" y="124.80000000000001"> </text>
<text x="388" y="124.80000000000001"> </text>
<text x="396.40000000000003" y="124.80000000000001"> </text>
<text x="404.8" y="124.80000000000001"> </text>
<text x="413.20000000000005" y="124.80000000000001"> </text>
<text x="421.6" y="124.80000000000001"> </text>
<text x="10" y="141.60000000000002"> </text>
<text x="18.4" y="141.60000000000002"> </text>
<text x="26.8" y="141.60000000000002"> </text>
<text x="35.2" y="141.60000000000002"> </text>
<text x="43.6" y="141.60000000000002"> </text>
<text x="52" y="141.60000000000002"> </text>
<text x="60.400000000000006" y="141.60000000000002"> </text>
<text x="68.80000000000001" y="141.60000000000002"> </text>
<text x="77.2" y="141.60000000000002"> </text>
<text x="85.60000000000001" y="141.60000000000002"> </text>
<text x="94" y="141.60000000000002"> </text>
<text x="102.4" y="141.60000000000002"> </text>
<text x="110.80000000000001" y="141.60000000000002"> </text>
<text x="119.2" y="141.60000000000002"> </text>
<text x="127.60000000000001" y="141.60000000000002"> </text>
<text x="136" y="141.60000000000002"> </text>
<text x="144.4" y="141.60000000000002"> </text>
<text x="152.8" y="141.60000000000002"> </text>
<text x="161.20000000000002" y="141.60000000000002"> </text>
<text x="169.6" y="141.60000000000002"> </text>
<text x="178" y="141.60000000000002"> </text>
<text x="186.4" y="141.60000000000002"> </text>
<text x="194.8" y="141.60000000000002"> </text>
<text x="203.20000000000002" y="141.60000000000002"> </text>
<text x="211.60000000000002" y="141.60000000000002"> </text>
<text x="220" y="141.60000000000002"> </text>
<text x="228.4" y="141.60000000000002"> </text>
<text x="236.8" y="141.60000000000002"> </text>
<text x="245.20000000000002" y="141.60000000000002"> </text>
<text x="253.60000000000002" y="141.60000000000002"> </text>
<text x="262" y="141.60000000000002"> </text>
<text x="270.40000000000003" y="141.60000000000002"> </text>
<text x="278.8" y="141.60000000000002"> </text>
<text x="287.2" y="141.60000000000002"> </text>
<text x="295.6" y="141.60000000000002"> </text>
<text x="304" y="141.60000000000002"> </text>
<text x="312.40000000000003" y="141.60000000000002"> </text>
<text x="320.8" y="141.60000000000002"> </text>
<text x="329.2" y="141.60000000000002"> </text>
<text x="337.6" y="141.60000000000002"> </text>
<text x="346" y="141.60000000000002"> </text>
<text x="354.40000000000003" y="141.60000000000002"> </text>
<text x="362.8" y="141.60000000000002"> </text>
<text x="371.2" y="141.60000000000002"> </text>
<text x="379.6" y="141.60000000000002"> </text>
<text x="388" y="141.60000000000002"> </text>
<text x="396.40000000000003" y="141.60000000000002"> </text>
<text x="404.8" y="141.60000000000002"> </text>
<text x="413.20000000000005" y="141.60000000000002"> </text>
<text x="421.6" y="141.60000000000002"> </text>
</g>
</svg>